<?xml version="1.0" encoding="UTF-8"?><svg id="Layer_1" xmlns="http://www.w3.org/2000/svg" viewBox="0 0 1000 500"><defs><style>.cls-1{fill:#fff;}.cls-2{fill:#f1923e;}.cls-3{stroke:#f1923e;stroke-width:2.41px;}.cls-3,.cls-4{fill:none;stroke-miterlimit:10;}.cls-4{stroke:#fff;stroke-width:1.04px;}</style></defs><path class="cls-1" d="m103.62,72.46c.18,0,.27.09.27.27v.93c0,.18-.09.27-.27.27h-12.29v9.4h11.15c.18,0,.27.09.27.27v.93c0,.18-.09.27-.27.27h-11.15v9.7c0,.18-.12.27-.3.27h-1.08c-.18,0-.3-.09-.3-.27v-21.61c0-.3.15-.45.45-.45h13.53Z"/><path class="cls-1" d="m116.67,83.19v10.58c0,.24,0,.54-.54.69-1.08.33-4.19.48-6.06.48-4.07,0-5.42-1.17-5.42-4.7,0-3.04,1.45-4.28,4.85-4.28h5.57v-2.59c0-2.74-2.08-3.47-4.88-3.47h-3.74c-.21,0-.27-.06-.27-.27v-.66c0-.18.03-.24.24-.3,1.51-.18,2.74-.21,3.77-.21,3.68,0,6.48.99,6.48,4.73Zm-7.17,4.19c-2.35,0-3.22.84-3.22,2.86,0,2.41.87,3.28,4.07,3.28.84,0,3.41-.06,4.73-.36v-5.79h-5.57Z"/><path class="cls-1" d="m131.59,78.64c.21.03.27.12.27.27v.72c0,.18-.12.27-.3.27h-4.34c-4.07,0-4.85,1.39-4.85,6.78s.78,6.81,4.85,6.81h4.34c.18,0,.3.12.3.3v.69c0,.15-.06.24-.27.27-1.24.15-3.47.18-4.37.18-5.27,0-6.48-1.69-6.48-8.26s1.21-8.23,6.48-8.23c.9,0,3.13.03,4.37.18Z"/><path class="cls-1" d="m147.29,86.05v.87c0,.39-.06.57-.66.57h-10.22c.09,4.76.87,6,4.73,6h4.49c.18,0,.3.12.3.3v.69c0,.15-.09.24-.27.27-1.24.15-3.4.18-4.52.18-5.3,0-6.33-1.69-6.33-8.26s1.02-8.23,6.33-8.23c4.91,0,6.06,1.54,6.15,7.59Zm-10.88-.03h9.28c-.06-5.03-.87-6.12-4.55-6.12-3.92,0-4.7,1.21-4.73,6.12Z"/><path class="cls-1" d="m152.44,72.46c.18,0,.27.12.27.3v5.85c1.39-.09,2.77-.15,4.28-.15,5.88,0,6.75,1.57,6.75,8.14s-.87,8.35-6.24,8.35c-1.78,0-3.1-.03-6.03-.45-.3-.06-.36-.21-.36-.45v-21.28c0-.18.09-.3.27-.3h1.05Zm.27,7.44v13.26c2.08.27,3.47.33,4.79.33,4.13,0,4.64-1.36,4.64-6.93s-.54-6.66-5.15-6.66h-4.28Z"/><path class="cls-1" d="m180.41,86.68c0,6.57-1.17,8.26-6.48,8.26s-6.48-1.69-6.48-8.26,1.21-8.23,6.48-8.23,6.48,1.69,6.48,8.23Zm-11.33,0c0,5.42.78,6.81,4.85,6.81s4.88-1.39,4.88-6.81-.78-6.78-4.88-6.78-4.85,1.39-4.85,6.78Z"/><path class="cls-1" d="m197.04,86.68c0,6.57-1.17,8.26-6.48,8.26s-6.48-1.69-6.48-8.26,1.21-8.23,6.48-8.23,6.48,1.69,6.48,8.23Zm-11.33,0c0,5.42.78,6.81,4.85,6.81s4.88-1.39,4.88-6.81-.78-6.78-4.88-6.78-4.85,1.39-4.85,6.78Z"/><path class="cls-1" d="m202.53,72.46c.18,0,.3.12.3.3v11.78l5.94-5.7c.15-.15.3-.18.54-.18h1.39c.33,0,.33.18.15.36l-6.27,5.91,8.11,9.43c.15.18.12.42-.33.42h-1.12c-.18,0-.39-.06-.51-.24l-7.89-9.28v9.22c0,.21-.12.3-.3.3h-1.02c-.18,0-.27-.09-.27-.3v-21.73c0-.18.09-.3.27-.3h1.02Z"/><path class="cls-1" d="m234.68,86.83c0,6.57-.87,8.11-6.75,8.11-1.42,0-2.71-.06-4.28-.15v5.54c0,.18-.09.3-.27.3h-1.05c-.18,0-.27-.12-.27-.3v-21.18c0-.24.09-.39.36-.45,2.92-.21,4.25-.24,6.03-.24,5.36,0,6.24,1.66,6.24,8.38Zm-11.03-6.93v13.44c1.39.12,2.89.15,4.28.15,4.61,0,5.15-1.24,5.15-6.66s-.51-6.93-4.64-6.93h-4.79Z"/><path class="cls-1" d="m249.81,83.19v10.58c0,.24,0,.54-.54.69-1.08.33-4.19.48-6.06.48-4.07,0-5.42-1.17-5.42-4.7,0-3.04,1.45-4.28,4.85-4.28h5.57v-2.59c0-2.74-2.08-3.47-4.88-3.47h-3.74c-.21,0-.27-.06-.27-.27v-.66c0-.18.03-.24.24-.3,1.51-.18,2.74-.21,3.77-.21,3.68,0,6.48.99,6.48,4.73Zm-7.17,4.19c-2.35,0-3.22.84-3.22,2.86,0,2.41.87,3.28,4.07,3.28.84,0,3.41-.06,4.73-.36v-5.79h-5.57Z"/><path class="cls-1" d="m266.18,78.7c.27.03.36.21.36.45v15.19c-.03,5.03-1.17,6.45-6.45,6.45-1.24,0-2.65-.03-4.04-.15-.18,0-.27-.12-.27-.3v-.69c0-.18.09-.3.27-.3h4.04c3.98,0,4.85-1,4.85-4.34v-.24c-1.57.15-2.86.18-4.28.18-5.88,0-6.75-1.54-6.75-8.11s.87-8.38,6.24-8.38c2.08,0,3.74.09,6.03.24Zm-6.03,1.21c-4.13,0-4.64,1.33-4.64,6.93s.54,6.66,5.15,6.66c1.39,0,2.89-.03,4.28-.15v-13.44h-4.79Z"/><path class="cls-1" d="m283.24,86.05v.87c0,.39-.06.57-.66.57h-10.22c.09,4.76.87,6,4.73,6h4.49c.18,0,.3.12.3.3v.69c0,.15-.09.24-.27.27-1.24.15-3.4.18-4.52.18-5.3,0-6.33-1.69-6.33-8.26s1.02-8.23,6.33-8.23c4.91,0,6.06,1.54,6.15,7.59Zm-10.88-.03h9.28c-.06-5.03-.87-6.12-4.55-6.12-3.92,0-4.7,1.21-4.73,6.12Z"/><path class="cls-1" d="m301.26,78.67c.18.06.24.15.24.3v.66c0,.18-.12.3-.3.27h-2.68c-1.14,0-2.56.15-2.56,1.75v12.87c0,.18-.09.27-.27.27h-1.05c-.18,0-.27-.09-.27-.27v-13.11c0-2.92,2.92-2.95,3.89-2.95.78,0,2.44.09,3.01.21Z"/><path class="cls-1" d="m316.35,86.05v.87c0,.39-.06.57-.66.57h-10.22c.09,4.76.87,6,4.73,6h4.49c.18,0,.3.12.3.3v.69c0,.15-.09.24-.27.27-1.24.15-3.4.18-4.52.18-5.3,0-6.33-1.69-6.33-8.26s1.02-8.23,6.33-8.23c4.91,0,6.06,1.54,6.15,7.59Zm-10.88-.03h9.28c-.06-5.03-.87-6.12-4.55-6.12-3.92,0-4.7,1.21-4.73,6.12Z"/><path class="cls-1" d="m331.09,83.19v10.58c0,.24,0,.54-.54.69-1.08.33-4.19.48-6.06.48-4.07,0-5.42-1.17-5.42-4.7,0-3.04,1.45-4.28,4.85-4.28h5.57v-2.59c0-2.74-2.08-3.47-4.88-3.47h-3.74c-.21,0-.27-.06-.27-.27v-.66c0-.18.03-.24.24-.3,1.51-.18,2.74-.21,3.77-.21,3.68,0,6.48.99,6.48,4.73Zm-7.17,4.19c-2.35,0-3.22.84-3.22,2.86,0,2.41.87,3.28,4.07,3.28.84,0,3.41-.06,4.73-.36v-5.79h-5.57Z"/><path class="cls-1" d="m346.01,78.64c.21.03.27.12.27.27v.72c0,.18-.12.27-.3.27h-4.34c-4.07,0-4.85,1.39-4.85,6.78s.78,6.81,4.85,6.81h4.34c.18,0,.3.12.3.3v.69c0,.15-.06.24-.27.27-1.24.15-3.47.18-4.37.18-5.27,0-6.48-1.69-6.48-8.26s1.21-8.23,6.48-8.23c.9,0,3.13.03,4.37.18Z"/><path class="cls-1" d="m351.04,72.46c.18,0,.27.12.27.3v5.85c1.51-.12,3.44-.15,4.82-.15,4.46,0,6.27.75,6.27,6.63v9.43c0,.18-.09.27-.27.27h-1.05c-.18,0-.27-.09-.27-.27v-9.43c0-4.73-1.36-5.18-4.46-5.18h-5.03v14.62c0,.18-.09.27-.27.27h-1.05c-.18,0-.27-.09-.27-.27v-21.76c0-.18.09-.3.27-.3h1.05Z"/><path class="cls-1" d="m385.28,83.19v10.58c0,.24,0,.54-.54.69-1.08.33-4.19.48-6.06.48-4.07,0-5.42-1.17-5.42-4.7,0-3.04,1.45-4.28,4.85-4.28h5.57v-2.59c0-2.74-2.08-3.47-4.88-3.47h-3.74c-.21,0-.27-.06-.27-.27v-.66c0-.18.03-.24.24-.3,1.51-.18,2.74-.21,3.77-.21,3.68,0,6.48.99,6.48,4.73Zm-7.17,4.19c-2.35,0-3.22.84-3.22,2.86,0,2.41.87,3.28,4.07,3.28.84,0,3.41-.06,4.73-.36v-5.79h-5.57Z"/><path class="cls-1" d="m396.97,72.46c.18.06.24.12.24.27v.72c0,.18-.09.27-.27.27h-2.02c-1.02,0-2.56.03-2.56,1.75v3.19h4.31c.18,0,.27.09.21.3l-.15.78c-.03.18-.12.24-.27.24h-4.1v14.53c0,.18-.12.27-.3.27h-1.02c-.18,0-.27-.09-.27-.27v-14.53h-2.38c-.18,0-.3-.09-.3-.27v-.78c0-.18.12-.27.3-.27h2.38v-3.43c0-2.92,2.8-2.95,3.74-2.95.84,0,1.84.09,2.47.18Z"/><path class="cls-1" d="m401.64,74.06c.21-.06.3.03.3.24v4.37h3.5c.18,0,.3.09.3.27v.78c0,.18-.12.27-.3.27h-3.5v11.78c0,1.39.42,1.72,1.96,1.72h1.81c.21,0,.3.09.3.27v.75c0,.15-.06.24-.24.3-.57.09-1.57.12-1.81.12-2.14,0-3.62-.36-3.62-2.92v-12.02h-1.72c-.18,0-.3-.09-.3-.27v-.78c0-.18.12-.27.3-.27h1.72v-4.07c0-.18.09-.24.27-.3l1.02-.24Z"/><path class="cls-1" d="m420.96,86.05v.87c0,.39-.06.57-.66.57h-10.22c.09,4.76.87,6,4.73,6h4.49c.18,0,.3.12.3.3v.69c0,.15-.09.24-.27.27-1.24.15-3.4.18-4.52.18-5.3,0-6.33-1.69-6.33-8.26s1.02-8.23,6.33-8.23c4.91,0,6.06,1.54,6.15,7.59Zm-10.88-.03h9.28c-.06-5.03-.87-6.12-4.55-6.12-3.92,0-4.7,1.21-4.73,6.12Z"/><path class="cls-1" d="m431.63,78.67c.18.06.24.15.24.3v.66c0,.18-.12.3-.3.27h-2.68c-1.14,0-2.56.15-2.56,1.75v12.87c0,.18-.09.27-.27.27h-1.05c-.18,0-.27-.09-.27-.27v-13.11c0-2.92,2.92-2.95,3.89-2.95.78,0,2.44.09,3.01.21Z"/><path class="cls-2" d="m452.87,90.66c.3,0,.45.15.45.45v3.23c0,.3-.15.45-.45.45h-12.05c-.3,0-.45-.15-.45-.45l-.03-3.23c0-.3.15-.45.48-.45h3.83v-13.89c0-1.33-.54-1.57-2.11-1.57h-1.96c-.33.03-.51-.12-.51-.45v-2.53c0-.36.15-.51.48-.57,1.06-.24,2.26-.36,3.1-.36,2.77,0,5.54.45,5.54,4.25v15.13h3.68Z"/><path class="cls-2" d="m460.68,90.99c.18,0,.3.09.3.3v.69c0,.18-.09.33-.15.42l-5.39,7.59c-.15.18-.27.21-.45.12l-1.33-.72c-.15-.09-.15-.27-.09-.42l2.23-7.71c.06-.18.12-.27.36-.27h4.52Z"/><path class="cls-2" d="m481.56,83.16c0,9.13-1.75,11.78-8.92,11.78s-8.95-2.65-8.95-11.78,1.75-11.87,8.95-11.87,8.92,2.74,8.92,11.87Zm-13.11,0c0,5.91.81,7.65,4.19,7.65s4.16-1.75,4.16-7.65-.81-7.75-4.16-7.75-4.19,1.81-4.19,7.75Z"/><path class="cls-2" d="m495.22,71.47c.36,0,.45.24.3.54l-4.34,8.71c.63-.15,1.51-.21,2.26-.21,5,0,7.77,1.78,7.77,6v2.23c0,4.82-3.28,6.21-8.47,6.21s-8.65-1.39-8.65-6.24v-2.2c0-1.3.18-2.14.6-3.07l5.91-11.66c.12-.21.3-.3.54-.3h4.07Zm-6.36,16.06v.15c0,2.26.75,3.13,3.89,3.13s3.74-.9,3.74-3.1v-.15c0-2.26-.69-3.13-3.74-3.13s-3.89.87-3.89,3.1Z"/><path class="cls-2" d="m514.23,71.47c.36,0,.45.24.3.54l-4.34,8.71c.63-.15,1.51-.21,2.26-.21,5,0,7.77,1.78,7.77,6v2.23c0,4.82-3.28,6.21-8.47,6.21s-8.65-1.39-8.65-6.24v-2.2c0-1.3.18-2.14.6-3.07l5.91-11.66c.12-.21.3-.3.54-.3h4.07Zm-6.36,16.06v.15c0,2.26.75,3.13,3.89,3.13s3.74-.9,3.74-3.1v-.15c0-2.26-.69-3.13-3.74-3.13s-3.89.87-3.89,3.1Z"/><path class="cls-2" d="m527.98,90.99c.18,0,.3.09.3.3v.69c0,.18-.09.33-.15.42l-5.39,7.59c-.15.18-.27.21-.45.12l-1.33-.72c-.15-.09-.15-.27-.09-.42l2.23-7.71c.06-.18.12-.27.36-.27h4.52Z"/><path class="cls-2" d="m546.63,76.77v2.74c0,2.08-.15,3.68-3.04,5.54l-5.39,3.35c-.9.51-1.21.9-1.21,1.69v.54h9.76c.21,0,.24.03.24.18v3.8c0,.15-.06.18-.21.18h-15.49c-.66,0-.81-.33-.81-.84v-2.71c0-2.53,1.05-3.59,3.83-5.48l6.42-4.22c1-.66,1.18-1.45,1.18-2.74v-1.02c0-1.9-1.3-2.35-4.22-2.35h-5.85c-.24,0-.36-.09-.36-.33v-2.59c0-.42.18-.57.57-.66,1.93-.36,3.26-.54,6.15-.54,4.43,0,8.44.75,8.44,5.48Z"/><path class="cls-2" d="m565.5,71.47c.3,0,.45.12.45.45v2.44c0,.3-.09.48-.21.69l-10.15,19.44c-.12.21-.3.3-.54.3h-4.46c-.36,0-.45-.24-.3-.54l9.85-18.65h-10.76c-.33,0-.48-.15-.48-.42v-3.26c0-.33.15-.45.48-.45h16.12Z"/><path class="cls-2" d="m576.74,71.32c5.33,0,7.83,2.02,7.83,6.39,0,2.71-.99,4.37-3.13,5.55,2.53,1.08,3.71,2.59,3.71,5.36,0,4.28-2.74,6.33-8.47,6.33h-.54c-5.73,0-8.44-2.05-8.44-6.39,0-2.53,1.3-4.4,3.83-5.73-2.23-1.08-3.13-2.74-3.13-5.09,0-4.4,2.47-6.42,7.84-6.42h.51Zm-1.69,13.35c-2.02.9-2.62,1.9-2.62,3.19,0,1.96,1.33,2.95,3.8,2.95h.39c2.5,0,3.8-.81,3.8-2.53s-1.21-2.32-2.5-2.71l-2.86-.9Zm1.27-9.22c-1.93,0-3.16.69-3.16,2.5,0,1.6,1,2.35,2.47,2.89l2.2.66c1.42-.75,2.02-1.87,2.02-3.28,0-1.78-.99-2.77-3.19-2.77h-.33Z"/><rect class="cls-4" x="89.25" y="146.16" width="877.13" height="250.71"/><line class="cls-4" x1="89.25" y1="355.08" x2="966.38" y2="355.08"/><line class="cls-4" x1="89.25" y1="313.3" x2="966.38" y2="313.3"/><line class="cls-4" x1="89.25" y1="271.51" x2="966.38" y2="271.51"/><line class="cls-4" x1="89.25" y1="229.73" x2="966.38" y2="229.73"/><line class="cls-4" x1="89.25" y1="187.94" x2="966.38" y2="187.94"/><path class="cls-1" d="m74.21,397.32c0-4.16,2.15-6.75,5.21-6.75s5.21,2.59,5.21,6.75-2.15,6.75-5.21,6.75-5.21-2.59-5.21-6.75Zm9.45,0c0-3.71-1.73-5.86-4.24-5.86s-4.24,2.15-4.24,5.86,1.73,5.85,4.24,5.85,4.24-2.15,4.24-5.85Z"/><path class="cls-1" d="m138.4,426.91l.44-.72c.91.95,2.6,1.67,4.39,1.67,2.66,0,3.84-1.16,3.84-2.6,0-3.99-8.31-1.6-8.31-6.5,0-1.88,1.45-3.54,4.71-3.54,1.46,0,2.98.46,4.01,1.2l-.36.78c-1.1-.76-2.45-1.12-3.65-1.12-2.59,0-3.75,1.2-3.75,2.66,0,3.99,8.31,1.63,8.31,6.46,0,1.88-1.5,3.52-4.79,3.52-1.98,0-3.88-.74-4.85-1.81Z"/><path class="cls-1" d="m160.51,427.74v.88h-9.18v-13.31h8.9v.88h-7.93v5.25h7.09v.86h-7.09v5.46h8.21Z"/><path class="cls-1" d="m174.18,419.8c0,2.79-2.01,4.47-5.36,4.47h-3.8v4.35h-.97v-13.31h4.77c3.35,0,5.36,1.67,5.36,4.49Zm-.99,0c0-2.3-1.52-3.61-4.37-3.61h-3.8v7.2h3.8c2.85,0,4.37-1.31,4.37-3.59Z"/><path class="cls-1" d="m179.54,416.19h-4.79v-.88h10.55v.88h-4.79v12.43h-.97v-12.43Z"/><path class="cls-1" d="m194.65,415.31v13.31h-.97v-12.43h-3.25v-.88h4.22Z"/><path class="cls-1" d="m201.36,415.31v13.31h-.97v-12.43h-3.25v-.88h4.22Z"/><path class="cls-1" d="m257.35,421.97c0-3.86,2.95-6.75,6.92-6.75s6.92,2.87,6.92,6.75-2.97,6.75-6.92,6.75-6.92-2.89-6.92-6.75Zm12.85,0c0-3.36-2.55-5.85-5.93-5.85s-5.95,2.49-5.95,5.85,2.55,5.86,5.95,5.86,5.93-2.49,5.93-5.86Z"/><path class="cls-1" d="m273.28,421.97c0-3.88,2.95-6.75,6.9-6.75,1.88,0,3.57.61,4.73,1.84l-.61.63c-1.14-1.12-2.53-1.58-4.09-1.58-3.4,0-5.97,2.51-5.97,5.85s2.57,5.86,5.97,5.86c1.56,0,2.95-.47,4.09-1.6l.61.63c-1.16,1.24-2.85,1.86-4.73,1.86-3.95,0-6.9-2.87-6.9-6.75Z"/><path class="cls-1" d="m290.54,416.19h-4.79v-.88h10.55v.88h-4.79v12.43h-.97v-12.43Z"/><path class="cls-1" d="m305.65,415.31v13.31h-.97v-12.43h-3.25v-.88h4.22Z"/><path class="cls-1" d="m386.01,421.97c0-3.86,2.95-6.75,6.92-6.75s6.92,2.87,6.92,6.75-2.97,6.75-6.92,6.75-6.92-2.89-6.92-6.75Zm12.85,0c0-3.36-2.55-5.85-5.93-5.85s-5.95,2.49-5.95,5.85,2.55,5.86,5.95,5.86,5.93-2.49,5.93-5.86Z"/><path class="cls-1" d="m401.95,421.97c0-3.88,2.95-6.75,6.9-6.75,1.88,0,3.57.61,4.73,1.84l-.61.63c-1.14-1.12-2.53-1.58-4.09-1.58-3.4,0-5.97,2.51-5.97,5.85s2.57,5.86,5.97,5.86c1.56,0,2.95-.47,4.09-1.6l.61.63c-1.16,1.24-2.85,1.86-4.73,1.86-3.95,0-6.9-2.87-6.9-6.75Z"/><path class="cls-1" d="m419.21,416.19h-4.79v-.88h10.55v.88h-4.79v12.43h-.97v-12.43Z"/><path class="cls-1" d="m439.85,427.74v.88h-9.14v-.68l5.63-5.59c1.58-1.58,1.88-2.51,1.88-3.52,0-1.67-1.16-2.72-3.36-2.72-1.67,0-2.91.49-3.82,1.54l-.68-.61c1.01-1.16,2.59-1.83,4.58-1.83,2.6,0,4.28,1.35,4.28,3.52,0,1.27-.42,2.4-2.17,4.12l-4.9,4.89h7.72Z"/><path class="cls-1" d="m445.03,415.31v13.31h-.97v-12.43h-3.25v-.88h4.22Z"/><path class="cls-1" d="m547.67,415.31v13.31h-.8l-9.07-11.56v11.56h-.97v-13.31h.82l9.05,11.56v-11.56h.97Z"/><path class="cls-1" d="m551.04,421.97c0-3.86,2.95-6.75,6.92-6.75s6.92,2.87,6.92,6.75-2.97,6.75-6.92,6.75-6.92-2.89-6.92-6.75Zm12.85,0c0-3.36-2.55-5.85-5.93-5.85s-5.95,2.49-5.95,5.85,2.55,5.86,5.95,5.86,5.93-2.49,5.93-5.86Z"/><path class="cls-1" d="m578.47,415.31l-5.93,13.31h-.97l-5.93-13.31h1.06l5.38,12.05,5.38-12.05h1.01Z"/><path class="cls-1" d="m587.86,415.31v13.31h-.97v-12.43h-3.25v-.88h4.22Z"/><path class="cls-1" d="m591.23,421.97c0-4.16,2.15-6.75,5.21-6.75s5.21,2.59,5.21,6.75-2.15,6.75-5.21,6.75-5.21-2.59-5.21-6.75Zm9.45,0c0-3.71-1.73-5.85-4.24-5.85s-4.24,2.15-4.24,5.85,1.73,5.86,4.24,5.86,4.24-2.15,4.24-5.86Z"/><path class="cls-1" d="m690.51,415.31h5.27c4.22,0,7.07,2.78,7.07,6.65s-2.85,6.65-7.07,6.65h-5.27v-13.31Zm5.19,12.43c3.76,0,6.18-2.39,6.18-5.78s-2.41-5.78-6.18-5.78h-4.22v11.56h4.22Z"/><path class="cls-1" d="m715.39,427.74v.88h-9.18v-13.31h8.9v.88h-7.93v5.25h7.09v.86h-7.09v5.46h8.21Z"/><path class="cls-1" d="m717.58,421.97c0-3.88,2.95-6.75,6.9-6.75,1.88,0,3.57.61,4.73,1.84l-.61.63c-1.14-1.12-2.53-1.58-4.09-1.58-3.4,0-5.97,2.51-5.97,5.85s2.57,5.86,5.97,5.86c1.56,0,2.95-.47,4.09-1.6l.61.63c-1.16,1.24-2.85,1.86-4.73,1.86-3.95,0-6.9-2.87-6.9-6.75Z"/><path class="cls-1" d="m744.95,427.74v.88h-9.14v-.68l5.63-5.59c1.58-1.58,1.88-2.51,1.88-3.52,0-1.67-1.16-2.72-3.36-2.72-1.67,0-2.91.49-3.82,1.54l-.68-.61c1.01-1.16,2.59-1.83,4.58-1.83,2.6,0,4.28,1.35,4.28,3.52,0,1.27-.42,2.4-2.17,4.12l-4.9,4.89h7.72Z"/><path class="cls-1" d="m746.7,421.97c0-4.16,2.15-6.75,5.21-6.75s5.21,2.59,5.21,6.75-2.15,6.75-5.21,6.75-5.21-2.59-5.21-6.75Zm9.45,0c0-3.71-1.73-5.85-4.24-5.85s-4.24,2.15-4.24,5.85,1.73,5.86,4.24,5.86,4.24-2.15,4.24-5.86Z"/><path class="cls-1" d="m850.91,426.81l.59-.65c.72,1.08,1.75,1.67,2.95,1.67,1.77,0,2.64-1.01,2.64-3.14v-8.52h-4.9v-.88h5.87v9.39c0,2.68-1.24,4.01-3.61,4.01-1.44,0-2.77-.7-3.54-1.9Z"/><path class="cls-1" d="m870.53,424.87h-7.72l-1.69,3.75h-1.05l6.12-13.31h.97l6.12,13.31h-1.05l-1.71-3.75Zm-.36-.82l-3.5-7.68-3.48,7.68h6.98Z"/><path class="cls-1" d="m886.54,415.31v13.31h-.8l-9.07-11.56v11.56h-.97v-13.31h.82l9.05,11.56v-11.56h.97Z"/><path class="cls-1" d="m904.14,421.89c0,4.51-2.4,6.82-5.91,6.82-1.14,0-2.2-.19-3.02-.69l.4-.78c.68.44,1.62.61,2.62.61,2.99,0,4.94-1.96,4.94-5.82,0-.4-.02-.99-.11-1.6-.55,1.75-2.22,2.74-4.24,2.74-2.66,0-4.45-1.56-4.45-3.95s1.88-4.01,4.43-4.01c3.5,0,5.34,2.51,5.34,6.67Zm-1.5-2.72c0-1.56-1.31-3.12-3.8-3.12-2.07,0-3.5,1.24-3.5,3.16s1.37,3.14,3.61,3.14,3.69-1.39,3.69-3.18Z"/><path class="cls-1" d="m47.76,358.27c0,2.22-1.54,3.94-4.66,3.94-1.94,0-3.75-.72-4.68-1.79l.49-.74c.8.93,2.38,1.63,4.16,1.63,2.45,0,3.71-1.24,3.71-3,0-1.9-1.16-3.06-4.77-3.06h-2.7l.7-6.44h7.05v.87h-6.24l-.51,4.7h1.9c4.05,0,5.53,1.54,5.53,3.9Z"/><path class="cls-1" d="m49.59,355.46c0-4.16,2.15-6.75,5.21-6.75s5.21,2.59,5.21,6.75-2.15,6.75-5.21,6.75-5.21-2.59-5.21-6.75Zm9.45,0c0-3.71-1.73-5.86-4.24-5.86s-4.24,2.15-4.24,5.86,1.73,5.85,4.24,5.85,4.24-2.15,4.24-5.85Z"/><path class="cls-1" d="m62.1,355.46c0-4.16,2.15-6.75,5.21-6.75s5.21,2.59,5.21,6.75-2.15,6.75-5.21,6.75-5.21-2.59-5.21-6.75Zm9.45,0c0-3.71-1.73-5.86-4.24-5.86s-4.24,2.15-4.24,5.86,1.73,5.85,4.24,5.85,4.24-2.15,4.24-5.85Z"/><path class="cls-1" d="m41.77,306.95v13.31h-.97v-12.43h-3.25v-.88h4.22Z"/><path class="cls-1" d="m45.2,319.52c0-.46.36-.8.8-.8s.8.34.8.8-.36.82-.8.82-.8-.36-.8-.82Z"/><path class="cls-1" d="m48.73,313.6c0-4.16,2.15-6.75,5.21-6.75s5.21,2.59,5.21,6.75-2.15,6.75-5.21,6.75-5.21-2.59-5.21-6.75Zm9.45,0c0-3.71-1.73-5.85-4.24-5.85s-4.24,2.15-4.24,5.85,1.73,5.86,4.24,5.86,4.24-2.15,4.24-5.86Z"/><path class="cls-1" d="m66.47,313.7l-2.98,3.06v3.5h-.97v-13.31h.97v8.56l8.31-8.56h1.18l-5.86,6.05,6.25,7.26h-1.18l-5.72-6.56Z"/><path class="cls-1" d="m43.47,265.09v13.31h-.97v-12.43h-3.25v-.88h4.22Z"/><path class="cls-1" d="m46.89,277.66c0-.46.36-.8.8-.8s.8.34.8.8-.36.82-.8.82-.8-.36-.8-.82Z"/><path class="cls-1" d="m59.42,274.56c0,2.22-1.54,3.94-4.66,3.94-1.94,0-3.75-.72-4.68-1.79l.49-.74c.8.93,2.38,1.64,4.16,1.64,2.45,0,3.71-1.24,3.71-3,0-1.9-1.16-3.06-4.77-3.06h-2.7l.7-6.44h7.05v.88h-6.24l-.51,4.7h1.9c4.05,0,5.53,1.54,5.53,3.9Z"/><path class="cls-1" d="m66.47,271.84l-2.98,3.06v3.5h-.97v-13.31h.97v8.55l8.31-8.55h1.18l-5.86,6.05,6.25,7.26h-1.18l-5.72-6.56Z"/><path class="cls-1" d="m43.12,235.67v.88h-9.14v-.68l5.63-5.59c1.58-1.58,1.88-2.51,1.88-3.52,0-1.67-1.16-2.72-3.36-2.72-1.67,0-2.91.49-3.82,1.54l-.68-.61c1.01-1.16,2.59-1.83,4.58-1.83,2.6,0,4.28,1.35,4.28,3.52,0,1.27-.42,2.4-2.17,4.12l-4.9,4.89h7.72Z"/><path class="cls-1" d="m45.2,235.8c0-.46.36-.8.8-.8s.8.34.8.8-.36.82-.8.82-.8-.36-.8-.82Z"/><path class="cls-1" d="m48.73,229.89c0-4.16,2.15-6.75,5.21-6.75s5.21,2.59,5.21,6.75-2.15,6.75-5.21,6.75-5.21-2.59-5.21-6.75Zm9.45,0c0-3.71-1.73-5.85-4.24-5.85s-4.24,2.15-4.24,5.85,1.73,5.86,4.24,5.86,4.24-2.15,4.24-5.86Z"/><path class="cls-1" d="m66.47,229.99l-2.98,3.06v3.5h-.97v-13.31h.97v8.55l8.31-8.55h1.18l-5.86,6.05,6.25,7.26h-1.18l-5.72-6.56Z"/><path class="cls-1" d="m44.81,193.81v.88h-9.14v-.69l5.63-5.59c1.58-1.58,1.88-2.51,1.88-3.52,0-1.67-1.16-2.72-3.36-2.72-1.67,0-2.91.49-3.82,1.54l-.68-.61c1.01-1.16,2.59-1.82,4.58-1.82,2.6,0,4.28,1.35,4.28,3.52,0,1.27-.42,2.39-2.17,4.12l-4.9,4.89h7.72Z"/><path class="cls-1" d="m46.89,193.95c0-.46.36-.8.8-.8s.8.34.8.8-.36.82-.8.82-.8-.36-.8-.82Z"/><path class="cls-1" d="m59.42,190.85c0,2.22-1.54,3.94-4.66,3.94-1.94,0-3.75-.72-4.68-1.79l.49-.74c.8.93,2.38,1.64,4.16,1.64,2.45,0,3.71-1.24,3.71-3,0-1.9-1.16-3.06-4.77-3.06h-2.7l.7-6.44h7.05v.87h-6.24l-.51,4.7h1.9c4.05,0,5.53,1.54,5.53,3.9Z"/><path class="cls-1" d="m66.47,188.13l-2.98,3.06v3.5h-.97v-13.31h.97v8.55l8.31-8.55h1.18l-5.86,6.05,6.25,7.26h-1.18l-5.72-6.56Z"/><path class="cls-1" d="m43.08,149.09c0,2.2-1.6,3.84-4.66,3.84-1.96,0-3.76-.72-4.7-1.79l.49-.74c.82.93,2.38,1.63,4.2,1.63,2.4,0,3.67-1.14,3.67-2.95s-1.22-2.95-3.88-2.95h-.84v-.7l3.94-5.04h-7.09v-.87h8.35v.68l-3.99,5.11c3.02.08,4.51,1.6,4.51,3.76Z"/><path class="cls-1" d="m45.2,152.09c0-.46.36-.8.8-.8s.8.34.8.8-.36.82-.8.82-.8-.36-.8-.82Z"/><path class="cls-1" d="m48.73,146.18c0-4.16,2.15-6.75,5.21-6.75s5.21,2.59,5.21,6.75-2.15,6.75-5.21,6.75-5.21-2.59-5.21-6.75Zm9.45,0c0-3.71-1.73-5.86-4.24-5.86s-4.24,2.15-4.24,5.86,1.73,5.85,4.24,5.85,4.24-2.15,4.24-5.85Z"/><path class="cls-1" d="m66.47,146.27l-2.98,3.06v3.5h-.97v-13.31h.97v8.55l8.31-8.55h1.18l-5.86,6.04,6.25,7.26h-1.18l-5.72-6.56Z"/><polyline class="cls-3" points="96.71 388.91 227.83 393.52 240.76 351.05 272.15 383.37 305.39 320.26 316.47 338.12 345.1 250.4 358.95 378.75 387.57 377.83 409.73 393.52 428.2 354.74 458.67 366.75 481.75 343.66 495.61 362.11 513.15 353.82 549.16 367.67 559.32 385.21 671.97 380.6 683.05 393.52 840.94 393.52 852.02 380.6 966.21 378.75"/></svg>