<?xml version="1.0" encoding="utf-8"?>
<!-- Generator: Adobe Illustrator 27.7.0, SVG Export Plug-In . SVG Version: 6.00 Build 0)  -->
<svg version="1.1" id="Layer_1" xmlns="http://www.w3.org/2000/svg" xmlns:xlink="http://www.w3.org/1999/xlink" x="0px" y="0px"
	 viewBox="0 0 1000 500" style="enable-background:new 0 0 1000 500;" xml:space="preserve">
<style type="text/css">
	.st0{fill:#FFFFFF;}
	.st1{fill:#F1923E;}
	.st2{fill:none;stroke:#FFFFFF;stroke-width:1.0454;stroke-miterlimit:10;}
	.st3{fill:none;stroke:#F1923E;stroke-width:2.4121;stroke-miterlimit:10;}
</style>
<g>
	<g>
		<path class="st0" d="M103.8,74.5c0.2,0,0.3,0.1,0.3,0.3v0.9c0,0.2-0.1,0.3-0.3,0.3H91.5v9.4h11.2c0.2,0,0.3,0.1,0.3,0.3v0.9
			c0,0.2-0.1,0.3-0.3,0.3H91.5v9.7c0,0.2-0.1,0.3-0.3,0.3h-1.1c-0.2,0-0.3-0.1-0.3-0.3V75c0-0.3,0.2-0.5,0.5-0.5H103.8z"/>
		<path class="st0" d="M116.8,85.3v10.6c0,0.2,0,0.5-0.5,0.7c-1.1,0.3-4.2,0.5-6.1,0.5c-4.1,0-5.4-1.2-5.4-4.7c0-3,1.4-4.3,4.9-4.3
			h5.6v-2.6c0-2.7-2.1-3.5-4.9-3.5h-3.7c-0.2,0-0.3-0.1-0.3-0.3v-0.7c0-0.2,0-0.2,0.2-0.3c1.5-0.2,2.7-0.2,3.8-0.2
			C114,80.5,116.8,81.5,116.8,85.3z M109.7,89.5c-2.4,0-3.2,0.8-3.2,2.9c0,2.4,0.9,3.3,4.1,3.3c0.8,0,3.4-0.1,4.7-0.4v-5.8H109.7z"
			/>
		<path class="st0" d="M131.7,80.7c0.2,0,0.3,0.1,0.3,0.3v0.7c0,0.2-0.1,0.3-0.3,0.3h-4.3c-4.1,0-4.9,1.4-4.9,6.8
			c0,5.4,0.8,6.8,4.9,6.8h4.3c0.2,0,0.3,0.1,0.3,0.3v0.7c0,0.2-0.1,0.2-0.3,0.3c-1.2,0.2-3.5,0.2-4.4,0.2c-5.3,0-6.5-1.7-6.5-8.3
			c0-6.5,1.2-8.2,6.5-8.2C128.3,80.5,130.5,80.6,131.7,80.7z"/>
		<path class="st0" d="M147.5,88.1V89c0,0.4-0.1,0.6-0.7,0.6h-10.2c0.1,4.8,0.9,6,4.7,6h4.5c0.2,0,0.3,0.1,0.3,0.3v0.7
			c0,0.2-0.1,0.2-0.3,0.3c-1.2,0.2-3.4,0.2-4.5,0.2c-5.3,0-6.3-1.7-6.3-8.3c0-6.6,1-8.2,6.3-8.2C146.2,80.5,147.4,82.1,147.5,88.1z
			 M136.6,88.1h9.3c-0.1-5-0.9-6.1-4.6-6.1C137.4,82,136.6,83.2,136.6,88.1z"/>
		<path class="st0" d="M152.6,74.5c0.2,0,0.3,0.1,0.3,0.3v5.8c1.4-0.1,2.8-0.2,4.3-0.2c5.9,0,6.8,1.6,6.8,8.1c0,6.7-0.9,8.4-6.2,8.4
			c-1.8,0-3.1,0-6-0.5c-0.3-0.1-0.4-0.2-0.4-0.5V74.8c0-0.2,0.1-0.3,0.3-0.3H152.6z M152.9,82v13.3c2.1,0.3,3.5,0.3,4.8,0.3
			c4.1,0,4.6-1.4,4.6-6.9c0-5.4-0.5-6.7-5.2-6.7H152.9z"/>
		<path class="st0" d="M180.6,88.8c0,6.6-1.2,8.3-6.5,8.3c-5.3,0-6.5-1.7-6.5-8.3c0-6.5,1.2-8.2,6.5-8.2
			C179.4,80.5,180.6,82.2,180.6,88.8z M169.3,88.8c0,5.4,0.8,6.8,4.9,6.8c4.1,0,4.9-1.4,4.9-6.8c0-5.4-0.8-6.8-4.9-6.8
			C170,82,169.3,83.4,169.3,88.8z"/>
		<path class="st0" d="M197.2,88.8c0,6.6-1.2,8.3-6.5,8.3c-5.3,0-6.5-1.7-6.5-8.3c0-6.5,1.2-8.2,6.5-8.2
			C196.1,80.5,197.2,82.2,197.2,88.8z M185.9,88.8c0,5.4,0.8,6.8,4.9,6.8c4.1,0,4.9-1.4,4.9-6.8c0-5.4-0.8-6.8-4.9-6.8
			C186.7,82,185.9,83.4,185.9,88.8z"/>
		<path class="st0" d="M202.7,74.5c0.2,0,0.3,0.1,0.3,0.3v11.8l5.9-5.7c0.2-0.2,0.3-0.2,0.5-0.2h1.4c0.3,0,0.3,0.2,0.2,0.4l-6.3,5.9
			l8.1,9.4c0.2,0.2,0.1,0.4-0.3,0.4h-1.1c-0.2,0-0.4-0.1-0.5-0.2l-7.9-9.3v9.2c0,0.2-0.1,0.3-0.3,0.3h-1c-0.2,0-0.3-0.1-0.3-0.3
			V74.8c0-0.2,0.1-0.3,0.3-0.3H202.7z"/>
		<path class="st0" d="M234.9,88.9c0,6.6-0.9,8.1-6.8,8.1c-1.4,0-2.7-0.1-4.3-0.2v5.5c0,0.2-0.1,0.3-0.3,0.3h-1.1
			c-0.2,0-0.3-0.1-0.3-0.3V81.2c0-0.2,0.1-0.4,0.4-0.5c2.9-0.2,4.3-0.2,6-0.2C234,80.5,234.9,82.2,234.9,88.9z M223.9,82v13.4
			c1.4,0.1,2.9,0.2,4.3,0.2c4.6,0,5.2-1.2,5.2-6.7c0-5.6-0.5-6.9-4.6-6.9H223.9z"/>
		<path class="st0" d="M250,85.3v10.6c0,0.2,0,0.5-0.5,0.7c-1.1,0.3-4.2,0.5-6.1,0.5c-4.1,0-5.4-1.2-5.4-4.7c0-3,1.4-4.3,4.9-4.3
			h5.6v-2.6c0-2.7-2.1-3.5-4.9-3.5h-3.7c-0.2,0-0.3-0.1-0.3-0.3v-0.7c0-0.2,0-0.2,0.2-0.3c1.5-0.2,2.7-0.2,3.8-0.2
			C247.2,80.5,250,81.5,250,85.3z M242.9,89.5c-2.4,0-3.2,0.8-3.2,2.9c0,2.4,0.9,3.3,4.1,3.3c0.8,0,3.4-0.1,4.7-0.4v-5.8H242.9z"/>
		<path class="st0" d="M266.4,80.8c0.3,0,0.4,0.2,0.4,0.5v15.2c0,5-1.2,6.5-6.5,6.5c-1.2,0-2.7,0-4-0.2c-0.2,0-0.3-0.1-0.3-0.3v-0.7
			c0-0.2,0.1-0.3,0.3-0.3h4c4,0,4.9-1,4.9-4.3v-0.2c-1.6,0.2-2.9,0.2-4.3,0.2c-5.9,0-6.8-1.5-6.8-8.1c0-6.8,0.9-8.4,6.2-8.4
			C262.5,80.5,264.1,80.6,266.4,80.8z M260.4,82c-4.1,0-4.6,1.3-4.6,6.9c0,5.4,0.5,6.7,5.2,6.7c1.4,0,2.9,0,4.3-0.2V82H260.4z"/>
		<path class="st0" d="M283.5,88.1V89c0,0.4-0.1,0.6-0.7,0.6h-10.2c0.1,4.8,0.9,6,4.7,6h4.5c0.2,0,0.3,0.1,0.3,0.3v0.7
			c0,0.2-0.1,0.2-0.3,0.3c-1.2,0.2-3.4,0.2-4.5,0.2c-5.3,0-6.3-1.7-6.3-8.3c0-6.6,1-8.2,6.3-8.2C282.2,80.5,283.4,82.1,283.5,88.1z
			 M272.6,88.1h9.3c-0.1-5-0.9-6.1-4.6-6.1C273.4,82,272.6,83.2,272.6,88.1z"/>
		<path class="st0" d="M301.5,80.8c0.2,0.1,0.2,0.2,0.2,0.3v0.7c0,0.2-0.1,0.3-0.3,0.3h-2.7c-1.1,0-2.6,0.2-2.6,1.7v12.9
			c0,0.2-0.1,0.3-0.3,0.3h-1.1c-0.2,0-0.3-0.1-0.3-0.3V83.5c0-2.9,2.9-3,3.9-3C299.3,80.5,300.9,80.6,301.5,80.8z"/>
		<path class="st0" d="M316.6,88.1V89c0,0.4-0.1,0.6-0.7,0.6h-10.2c0.1,4.8,0.9,6,4.7,6h4.5c0.2,0,0.3,0.1,0.3,0.3v0.7
			c0,0.2-0.1,0.2-0.3,0.3c-1.2,0.2-3.4,0.2-4.5,0.2c-5.3,0-6.3-1.7-6.3-8.3c0-6.6,1-8.2,6.3-8.2C315.4,80.5,316.5,82.1,316.6,88.1z
			 M305.7,88.1h9.3c-0.1-5-0.9-6.1-4.6-6.1C306.5,82,305.8,83.2,305.7,88.1z"/>
		<path class="st0" d="M331.3,85.3v10.6c0,0.2,0,0.5-0.5,0.7c-1.1,0.3-4.2,0.5-6.1,0.5c-4.1,0-5.4-1.2-5.4-4.7c0-3,1.4-4.3,4.9-4.3
			h5.6v-2.6c0-2.7-2.1-3.5-4.9-3.5h-3.7c-0.2,0-0.3-0.1-0.3-0.3v-0.7c0-0.2,0-0.2,0.2-0.3c1.5-0.2,2.7-0.2,3.8-0.2
			C328.5,80.5,331.3,81.5,331.3,85.3z M324.2,89.5c-2.4,0-3.2,0.8-3.2,2.9c0,2.4,0.9,3.3,4.1,3.3c0.8,0,3.4-0.1,4.7-0.4v-5.8H324.2z
			"/>
		<path class="st0" d="M346.3,80.7c0.2,0,0.3,0.1,0.3,0.3v0.7c0,0.2-0.1,0.3-0.3,0.3h-4.3c-4.1,0-4.9,1.4-4.9,6.8
			c0,5.4,0.8,6.8,4.9,6.8h4.3c0.2,0,0.3,0.1,0.3,0.3v0.7c0,0.2-0.1,0.2-0.3,0.3c-1.2,0.2-3.5,0.2-4.4,0.2c-5.3,0-6.5-1.7-6.5-8.3
			c0-6.5,1.2-8.2,6.5-8.2C342.8,80.5,345,80.6,346.3,80.7z"/>
		<path class="st0" d="M351.3,74.5c0.2,0,0.3,0.1,0.3,0.3v5.8c1.5-0.1,3.4-0.2,4.8-0.2c4.5,0,6.3,0.8,6.3,6.6v9.4
			c0,0.2-0.1,0.3-0.3,0.3h-1.1c-0.2,0-0.3-0.1-0.3-0.3v-9.4c0-4.7-1.4-5.2-4.5-5.2h-5v14.6c0,0.2-0.1,0.3-0.3,0.3h-1.1
			c-0.2,0-0.3-0.1-0.3-0.3V74.8c0-0.2,0.1-0.3,0.3-0.3H351.3z"/>
		<path class="st0" d="M376,74.5c0.2,0,0.3,0.1,0.3,0.3v5.8c1.4-0.1,2.8-0.2,4.3-0.2c5.9,0,6.8,1.6,6.8,8.1c0,6.7-0.9,8.4-6.2,8.4
			c-1.8,0-3.1,0-6-0.5c-0.3-0.1-0.4-0.2-0.4-0.5V74.8c0-0.2,0.1-0.3,0.3-0.3H376z M376.2,82v13.3c2.1,0.3,3.5,0.3,4.8,0.3
			c4.1,0,4.6-1.4,4.6-6.9c0-5.4-0.5-6.7-5.2-6.7H376.2z"/>
		<path class="st0" d="M403.5,88.1V89c0,0.4-0.1,0.6-0.7,0.6h-10.2c0.1,4.8,0.9,6,4.7,6h4.5c0.2,0,0.3,0.1,0.3,0.3v0.7
			c0,0.2-0.1,0.2-0.3,0.3c-1.2,0.2-3.4,0.2-4.5,0.2c-5.3,0-6.3-1.7-6.3-8.3c0-6.6,1-8.2,6.3-8.2C402.3,80.5,403.4,82.1,403.5,88.1z
			 M392.6,88.1h9.3c-0.1-5-0.9-6.1-4.6-6.1C393.4,82,392.6,83.2,392.6,88.1z"/>
		<path class="st0" d="M414.4,74.5c0.2,0.1,0.2,0.1,0.2,0.3v0.7c0,0.2-0.1,0.3-0.3,0.3h-2c-1,0-2.6,0-2.6,1.7v3.2h4.3
			c0.2,0,0.3,0.1,0.2,0.3l-0.1,0.8c0,0.2-0.1,0.2-0.3,0.2h-4.1v14.5c0,0.2-0.1,0.3-0.3,0.3h-1c-0.2,0-0.3-0.1-0.3-0.3V82.1h-2.4
			c-0.2,0-0.3-0.1-0.3-0.3V81c0-0.2,0.1-0.3,0.3-0.3h2.4v-3.4c0-2.9,2.8-3,3.7-3C412.8,74.4,413.8,74.5,414.4,74.5z"/>
		<path class="st0" d="M429.3,88.8c0,6.6-1.2,8.3-6.5,8.3c-5.3,0-6.5-1.7-6.5-8.3c0-6.5,1.2-8.2,6.5-8.2
			C428.1,80.5,429.3,82.2,429.3,88.8z M418,88.8c0,5.4,0.8,6.8,4.9,6.8c4.1,0,4.9-1.4,4.9-6.8c0-5.4-0.8-6.8-4.9-6.8
			C418.8,82,418,83.4,418,88.8z"/>
		<path class="st0" d="M440.3,80.8c0.2,0.1,0.2,0.2,0.2,0.3v0.7c0,0.2-0.1,0.3-0.3,0.3h-2.7c-1.1,0-2.6,0.2-2.6,1.7v12.9
			c0,0.2-0.1,0.3-0.3,0.3h-1.1c-0.2,0-0.3-0.1-0.3-0.3V83.5c0-2.9,2.9-3,3.9-3C438.1,80.5,439.8,80.6,440.3,80.8z"/>
		<path class="st0" d="M455.4,88.1V89c0,0.4-0.1,0.6-0.7,0.6h-10.2c0.1,4.8,0.9,6,4.7,6h4.5c0.2,0,0.3,0.1,0.3,0.3v0.7
			c0,0.2-0.1,0.2-0.3,0.3c-1.2,0.2-3.4,0.2-4.5,0.2c-5.3,0-6.3-1.7-6.3-8.3c0-6.6,1-8.2,6.3-8.2C454.2,80.5,455.4,82.1,455.4,88.1z
			 M444.6,88.1h9.3c-0.1-5-0.9-6.1-4.6-6.1C445.4,82,444.6,83.2,444.6,88.1z"/>
		<path class="st1" d="M481.3,79.2v1.4c0,1.8-0.5,4-3,4.6c2.6,0.6,3,2.8,3,4.6v1.3c0,4.9-3.1,6-9.2,6c-2.4,0-4.3-0.2-5.8-0.5
			c-0.4-0.1-0.7-0.2-0.7-0.6v-2.7c0-0.3,0.2-0.4,0.5-0.4h5.7c4,0,4.8-0.5,4.8-2.7v-0.3c0-2.1-0.6-2.8-3.7-2.8h-5.4
			c-0.3,0-0.4-0.1-0.4-0.4v-2.9c0-0.3,0.1-0.4,0.4-0.4h5.4c3.1,0,3.7-0.8,3.7-2.9v-0.4c0-2.1-1-2.6-4.9-2.6H466
			c-0.3,0-0.5-0.1-0.5-0.4v-2.6c0-0.5,0.2-0.6,0.7-0.7c1.5-0.3,3.5-0.5,5.8-0.5C478.1,73.4,481.3,74.3,481.3,79.2z"/>
		<path class="st1" d="M489.8,93.1c0.2,0,0.3,0.1,0.3,0.3v0.7c0,0.2-0.1,0.3-0.2,0.4l-5.4,7.6c-0.2,0.2-0.3,0.2-0.5,0.1l-1.3-0.7
			c-0.2-0.1-0.2-0.3-0.1-0.4l2.2-7.7c0.1-0.2,0.1-0.3,0.4-0.3H489.8z"/>
		<path class="st1" d="M510.7,85.2c0,9.1-1.7,11.8-8.9,11.8c-7.2,0-9-2.7-9-11.8s1.7-11.9,9-11.9C508.9,73.4,510.7,76.1,510.7,85.2z
			 M497.5,85.2c0,5.9,0.8,7.7,4.2,7.7c3.3,0,4.2-1.7,4.2-7.7c0-5.9-0.8-7.7-4.2-7.7C498.4,77.5,497.5,79.3,497.5,85.2z"/>
		<path class="st1" d="M530,79.6v2.2c0,1.3-0.2,2.1-0.6,3.1l-5.9,11.7c-0.1,0.2-0.3,0.3-0.5,0.3h-4.1c-0.4,0-0.5-0.2-0.3-0.5
			l4.3-8.7c-0.6,0.2-1.5,0.2-2.3,0.2c-5,0-7.8-1.8-7.8-6v-2.2c0-4.8,3.3-6.2,8.5-6.2C526.6,73.4,530,74.8,530,79.6z M517.7,80.7v0.1
			c0,2.3,0.7,3.1,3.7,3.1c3.1,0,3.9-0.9,3.9-3.1v-0.2c0-2.2-0.8-3.1-3.9-3.1C518.3,77.6,517.7,78.4,517.7,80.7z"/>
		<path class="st1" d="M549.1,79.6v2.2c0,1.3-0.2,2.1-0.6,3.1l-5.9,11.7c-0.1,0.2-0.3,0.3-0.5,0.3h-4.1c-0.4,0-0.5-0.2-0.3-0.5
			l4.3-8.7c-0.6,0.2-1.5,0.2-2.3,0.2c-5,0-7.8-1.8-7.8-6v-2.2c0-4.8,3.3-6.2,8.5-6.2C545.7,73.4,549.1,74.8,549.1,79.6z M536.7,80.7
			v0.1c0,2.3,0.7,3.1,3.7,3.1c3.1,0,3.9-0.9,3.9-3.1v-0.2c0-2.2-0.8-3.1-3.9-3.1C537.4,77.6,536.7,78.4,536.7,80.7z"/>
	</g>
	<g>
		<rect x="89.4" y="148.3" class="st2" width="877.5" height="250.8"/>
		<line class="st2" x1="89.4" y1="357.3" x2="966.9" y2="357.3"/>
		<line class="st2" x1="89.4" y1="315.5" x2="966.9" y2="315.5"/>
		<line class="st2" x1="89.4" y1="273.7" x2="966.9" y2="273.7"/>
		<line class="st2" x1="89.4" y1="231.9" x2="966.9" y2="231.9"/>
		<line class="st2" x1="89.4" y1="190.1" x2="966.9" y2="190.1"/>
	</g>
	<g>
		<path class="st0" d="M74.4,399.5c0-4.2,2.1-6.8,5.2-6.8c3.1,0,5.2,2.6,5.2,6.8c0,4.2-2.1,6.8-5.2,6.8
			C76.5,406.3,74.4,403.7,74.4,399.5z M83.8,399.5c0-3.7-1.7-5.9-4.2-5.9c-2.5,0-4.2,2.1-4.2,5.9c0,3.7,1.7,5.9,4.2,5.9
			C82.1,405.4,83.8,403.3,83.8,399.5z"/>
	</g>
	<g>
		<g>
			<path class="st0" d="M140.6,429.1l0.6-0.6c0.7,1.1,1.7,1.7,2.9,1.7c1.8,0,2.6-1,2.6-3.1v-8.5h-4.9v-0.9h5.9v9.4
				c0,2.7-1.2,4-3.6,4C142.7,431,141.4,430.3,140.6,429.1z"/>
			<path class="st0" d="M160.2,427.1h-7.7l-1.7,3.7h-1l6.1-13.3h1l6.1,13.3h-1L160.2,427.1z M159.9,426.3l-3.5-7.7l-3.5,7.7H159.9z"
				/>
			<path class="st0" d="M176.2,417.5v13.3h-0.8l-9.1-11.6v11.6h-1v-13.3h0.8l9.1,11.6v-11.6H176.2z"/>
			<path class="st0" d="M193.4,430v0.9h-9.1v-0.7l5.6-5.6c1.6-1.6,1.9-2.5,1.9-3.5c0-1.7-1.2-2.7-3.4-2.7c-1.7,0-2.9,0.5-3.8,1.5
				l-0.7-0.6c1-1.2,2.6-1.8,4.6-1.8c2.6,0,4.3,1.4,4.3,3.5c0,1.3-0.4,2.4-2.2,4.1l-4.9,4.9H193.4z"/>
			<path class="st0" d="M198.5,417.5v13.3h-1v-12.4h-3.3v-0.9H198.5z"/>
		</g>
	</g>
	<g>
		<g>
			<path class="st0" d="M266.8,430.9l0-11.4l-5.6,9.6h-0.5l-5.6-9.6v11.4h-1v-13.3h0.8l6,10.3l6-10.3h0.8l0,13.3H266.8z"/>
			<path class="st0" d="M280.7,427.1h-7.7l-1.7,3.7h-1l6.1-13.3h1l6.1,13.3h-1L280.7,427.1z M280.3,426.3l-3.5-7.7l-3.5,7.7H280.3z"
				/>
			<path class="st0" d="M295.1,430.9l-3.2-4.5c-0.4,0.1-0.8,0.1-1.3,0.1h-3.8v4.4h-1v-13.3h4.8c3.3,0,5.4,1.7,5.4,4.5
				c0,2.1-1.1,3.6-3.1,4.2l3.3,4.7H295.1z M290.6,425.7c2.9,0,4.4-1.3,4.4-3.6c0-2.3-1.5-3.6-4.4-3.6h-3.8v7.2H290.6z"/>
			<path class="st0" d="M312,430v0.9h-9.1v-0.7l5.6-5.6c1.6-1.6,1.9-2.5,1.9-3.5c0-1.7-1.2-2.7-3.4-2.7c-1.7,0-2.9,0.5-3.8,1.5
				l-0.7-0.6c1-1.2,2.6-1.8,4.6-1.8c2.6,0,4.3,1.4,4.3,3.5c0,1.3-0.4,2.4-2.2,4.1l-4.9,4.9H312z"/>
		</g>
	</g>
	<g>
		<g>
			<path class="st0" d="M397.6,427.1h-7.7l-1.7,3.7h-1l6.1-13.3h1l6.1,13.3h-1L397.6,427.1z M397.2,426.3l-3.5-7.7l-3.5,7.7H397.2z"
				/>
			<path class="st0" d="M412.9,422c0,2.8-2,4.5-5.4,4.5h-3.8v4.4h-1v-13.3h4.8C410.9,417.5,412.9,419.2,412.9,422z M411.9,422
				c0-2.3-1.5-3.6-4.4-3.6h-3.8v7.2h3.8C410.4,425.6,411.9,424.3,411.9,422z"/>
			<path class="st0" d="M425.4,430.9l-3.2-4.5c-0.4,0.1-0.8,0.1-1.3,0.1h-3.8v4.4h-1v-13.3h4.8c3.3,0,5.4,1.7,5.4,4.5
				c0,2.1-1.1,3.6-3.1,4.2l3.3,4.7H425.4z M420.9,425.7c2.9,0,4.4-1.3,4.4-3.6c0-2.3-1.5-3.6-4.4-3.6h-3.8v7.2H420.9z"/>
			<path class="st0" d="M436.8,417.5v13.3h-1v-12.4h-3.3v-0.9H436.8z"/>
			<path class="st0" d="M443.5,417.5v13.3h-1v-12.4h-3.3v-0.9H443.5z"/>
		</g>
	</g>
	<g>
		<g>
			<path class="st0" d="M551.4,430.9l0-11.4l-5.6,9.6h-0.5l-5.6-9.6v11.4h-1v-13.3h0.8l6,10.3l6-10.3h0.8l0,13.3H551.4z"/>
			<path class="st0" d="M565.2,427.1h-7.7l-1.7,3.7h-1l6.1-13.3h1l6.1,13.3h-1L565.2,427.1z M564.8,426.3l-3.5-7.7l-3.5,7.7H564.8z"
				/>
			<path class="st0" d="M573.7,426.3v4.6h-1v-4.6l-5.4-8.7h1.1l4.8,7.8l4.8-7.8h1L573.7,426.3z"/>
			<path class="st0" d="M594,430v0.9h-9.1v-0.7l5.6-5.6c1.6-1.6,1.9-2.5,1.9-3.5c0-1.7-1.2-2.7-3.4-2.7c-1.7,0-2.9,0.5-3.8,1.5
				l-0.7-0.6c1-1.2,2.6-1.8,4.6-1.8c2.6,0,4.3,1.4,4.3,3.5c0,1.3-0.4,2.4-2.2,4.1l-4.9,4.9H594z"/>
			<path class="st0" d="M599.2,417.5v13.3h-1v-12.4h-3.3v-0.9H599.2z"/>
		</g>
	</g>
	<g>
		<g>
			<path class="st0" d="M689.6,429.1l0.6-0.6c0.7,1.1,1.7,1.7,2.9,1.7c1.8,0,2.6-1,2.6-3.1v-8.5h-4.9v-0.9h5.9v9.4
				c0,2.7-1.2,4-3.6,4C691.7,431,690.4,430.3,689.6,429.1z"/>
			<path class="st0" d="M701.2,425.2v-7.7h1v7.6c0,3.3,1.6,4.9,4.4,4.9c2.8,0,4.4-1.6,4.4-4.9v-7.6h1v7.7c0,3.8-2,5.7-5.3,5.7
				C703.2,431,701.2,429,701.2,425.2z"/>
			<path class="st0" d="M727.2,417.5v13.3h-0.8l-9.1-11.6v11.6h-1v-13.3h0.8l9.1,11.6v-11.6H727.2z"/>
			<path class="st0" d="M744,427.1c0,2.2-1.6,3.8-4.7,3.8c-2,0-3.8-0.7-4.7-1.8l0.5-0.7c0.8,0.9,2.4,1.6,4.2,1.6
				c2.4,0,3.7-1.1,3.7-2.9c0-1.8-1.2-2.9-3.9-2.9h-0.8v-0.7l3.9-5h-7.1v-0.9h8.3v0.7l-4,5.1C742.6,423.4,744,424.9,744,427.1z"/>
			<path class="st0" d="M746.1,424.2c0-4.2,2.1-6.8,5.2-6.8c3.1,0,5.2,2.6,5.2,6.8c0,4.2-2.1,6.8-5.2,6.8
				C748.3,431,746.1,428.4,746.1,424.2z M755.6,424.2c0-3.7-1.7-5.9-4.2-5.9s-4.2,2.1-4.2,5.9c0,3.7,1.7,5.9,4.2,5.9
				S755.6,427.9,755.6,424.2z"/>
		</g>
	</g>
	<g>
		<g>
			<path class="st0" d="M859.5,427.1h-7.7l-1.7,3.7h-1l6.1-13.3h1l6.1,13.3h-1L859.5,427.1z M859.1,426.3l-3.5-7.7l-3.5,7.7H859.1z"
				/>
			<path class="st0" d="M864.3,425.2v-7.7h1v7.6c0,3.3,1.6,4.9,4.4,4.9c2.8,0,4.4-1.6,4.4-4.9v-7.6h1v7.7c0,3.8-2,5.7-5.3,5.7
				C866.3,431,864.3,429,864.3,425.2z"/>
			<path class="st0" d="M889,424.3h0.9v5c-1.2,1.1-2.9,1.7-4.8,1.7c-4,0-7-2.9-7-6.8c0-3.9,2.9-6.8,7-6.8c1.9,0,3.6,0.6,4.8,1.8
				l-0.6,0.6c-1.2-1.1-2.5-1.6-4.2-1.6c-3.5,0-6,2.5-6,5.9c0,3.3,2.6,5.9,6,5.9c1.4,0,2.7-0.3,3.8-1.2V424.3z"/>
			<path class="st0" d="M907.1,424.1c0,4.5-2.4,6.8-5.9,6.8c-1.1,0-2.2-0.2-3-0.7l0.4-0.8c0.7,0.4,1.6,0.6,2.6,0.6
				c3,0,4.9-2,4.9-5.8c0-0.4,0-1-0.1-1.6c-0.6,1.7-2.2,2.7-4.2,2.7c-2.7,0-4.5-1.6-4.5-4c0-2.4,1.9-4,4.4-4
				C905.3,417.5,907.1,420,907.1,424.1z M905.6,421.4c0-1.6-1.3-3.1-3.8-3.1c-2.1,0-3.5,1.2-3.5,3.2c0,1.9,1.4,3.1,3.6,3.1
				C904.1,424.6,905.6,423.2,905.6,421.4z"/>
		</g>
	</g>
	<g>
		<path class="st0" d="M47.9,360.5c0,2.2-1.5,3.9-4.7,3.9c-1.9,0-3.7-0.7-4.7-1.8l0.5-0.7c0.8,0.9,2.4,1.6,4.2,1.6
			c2.5,0,3.7-1.2,3.7-3c0-1.9-1.2-3.1-4.8-3.1h-2.7l0.7-6.4h7.1v0.9H41l-0.5,4.7h1.9C46.4,356.6,47.9,358.1,47.9,360.5z"/>
		<path class="st0" d="M49.7,357.7c0-4.2,2.1-6.8,5.2-6.8c3.1,0,5.2,2.6,5.2,6.8c0,4.2-2.1,6.8-5.2,6.8
			C51.9,364.4,49.7,361.8,49.7,357.7z M59.2,357.7c0-3.7-1.7-5.9-4.2-5.9c-2.5,0-4.2,2.1-4.2,5.9c0,3.7,1.7,5.9,4.2,5.9
			C57.4,363.5,59.2,361.4,59.2,357.7z"/>
		<path class="st0" d="M62.2,357.7c0-4.2,2.1-6.8,5.2-6.8c3.1,0,5.2,2.6,5.2,6.8c0,4.2-2.1,6.8-5.2,6.8
			C64.4,364.4,62.2,361.8,62.2,357.7z M71.7,357.7c0-3.7-1.7-5.9-4.2-5.9c-2.5,0-4.2,2.1-4.2,5.9c0,3.7,1.7,5.9,4.2,5.9
			C69.9,363.5,71.7,361.4,71.7,357.7z"/>
	</g>
	<g>
		<path class="st0" d="M41.9,309.1v13.3h-1V310h-3.3v-0.9H41.9z"/>
		<path class="st0" d="M45.3,321.7c0-0.5,0.4-0.8,0.8-0.8c0.4,0,0.8,0.3,0.8,0.8c0,0.5-0.4,0.8-0.8,0.8
			C45.7,322.5,45.3,322.2,45.3,321.7z"/>
		<path class="st0" d="M48.9,315.8c0-4.2,2.1-6.8,5.2-6.8c3.1,0,5.2,2.6,5.2,6.8c0,4.2-2.1,6.8-5.2,6.8
			C51,322.5,48.9,320,48.9,315.8z M58.3,315.8c0-3.7-1.7-5.9-4.2-5.9c-2.5,0-4.2,2.1-4.2,5.9c0,3.7,1.7,5.9,4.2,5.9
			C56.6,321.7,58.3,319.5,58.3,315.8z"/>
		<path class="st0" d="M66.6,315.9l-3,3.1v3.5h-1v-13.3h1v8.6l8.3-8.6h1.2l-5.9,6l6.3,7.3h-1.2L66.6,315.9z"/>
	</g>
	<g>
		<path class="st0" d="M43.6,267.3v13.3h-1v-12.4h-3.3v-0.9H43.6z"/>
		<path class="st0" d="M47,279.8c0-0.5,0.4-0.8,0.8-0.8c0.4,0,0.8,0.3,0.8,0.8c0,0.5-0.4,0.8-0.8,0.8C47.4,280.7,47,280.3,47,279.8z
			"/>
		<path class="st0" d="M59.5,276.7c0,2.2-1.5,3.9-4.7,3.9c-1.9,0-3.7-0.7-4.7-1.8l0.5-0.7c0.8,0.9,2.4,1.6,4.2,1.6
			c2.5,0,3.7-1.2,3.7-3c0-1.9-1.2-3.1-4.8-3.1h-2.7l0.7-6.4h7.1v0.9h-6.2l-0.5,4.7H54C58.1,272.8,59.5,274.4,59.5,276.7z"/>
		<path class="st0" d="M66.6,274l-3,3.1v3.5h-1v-13.3h1v8.6l8.3-8.6h1.2l-5.9,6l6.3,7.3h-1.2L66.6,274z"/>
	</g>
	<g>
		<path class="st0" d="M43.2,237.8v0.9h-9.1V238l5.6-5.6c1.6-1.6,1.9-2.5,1.9-3.5c0-1.7-1.2-2.7-3.4-2.7c-1.7,0-2.9,0.5-3.8,1.5
			l-0.7-0.6c1-1.2,2.6-1.8,4.6-1.8c2.6,0,4.3,1.4,4.3,3.5c0,1.3-0.4,2.4-2.2,4.1l-4.9,4.9H43.2z"/>
		<path class="st0" d="M45.3,238c0-0.5,0.4-0.8,0.8-0.8c0.4,0,0.8,0.3,0.8,0.8c0,0.5-0.4,0.8-0.8,0.8
			C45.7,238.8,45.3,238.4,45.3,238z"/>
		<path class="st0" d="M48.9,232c0-4.2,2.1-6.8,5.2-6.8c3.1,0,5.2,2.6,5.2,6.8c0,4.2-2.1,6.8-5.2,6.8C51,238.8,48.9,236.2,48.9,232z
			 M58.3,232c0-3.7-1.7-5.9-4.2-5.9c-2.5,0-4.2,2.1-4.2,5.9c0,3.7,1.7,5.9,4.2,5.9C56.6,237.9,58.3,235.8,58.3,232z"/>
		<path class="st0" d="M66.6,232.1l-3,3.1v3.5h-1v-13.3h1v8.6l8.3-8.6h1.2l-5.9,6l6.3,7.3h-1.2L66.6,232.1z"/>
	</g>
	<g>
		<path class="st0" d="M44.9,196v0.9h-9.1v-0.7l5.6-5.6c1.6-1.6,1.9-2.5,1.9-3.5c0-1.7-1.2-2.7-3.4-2.7c-1.7,0-2.9,0.5-3.8,1.5
			l-0.7-0.6c1-1.2,2.6-1.8,4.6-1.8c2.6,0,4.3,1.4,4.3,3.5c0,1.3-0.4,2.4-2.2,4.1l-4.9,4.9H44.9z"/>
		<path class="st0" d="M47,196.1c0-0.5,0.4-0.8,0.8-0.8c0.4,0,0.8,0.3,0.8,0.8c0,0.5-0.4,0.8-0.8,0.8C47.4,196.9,47,196.5,47,196.1z
			"/>
		<path class="st0" d="M59.5,193c0,2.2-1.5,3.9-4.7,3.9c-1.9,0-3.7-0.7-4.7-1.8l0.5-0.7c0.8,0.9,2.4,1.6,4.2,1.6
			c2.5,0,3.7-1.2,3.7-3c0-1.9-1.2-3.1-4.8-3.1h-2.7l0.7-6.4h7.1v0.9h-6.2l-0.5,4.7H54C58.1,189.1,59.5,190.6,59.5,193z"/>
		<path class="st0" d="M66.6,190.3l-3,3.1v3.5h-1v-13.3h1v8.6l8.3-8.6h1.2l-5.9,6l6.3,7.3h-1.2L66.6,190.3z"/>
	</g>
	<g>
		<path class="st0" d="M43.2,151.2c0,2.2-1.6,3.8-4.7,3.8c-2,0-3.8-0.7-4.7-1.8l0.5-0.7c0.8,0.9,2.4,1.6,4.2,1.6
			c2.4,0,3.7-1.1,3.7-2.9c0-1.8-1.2-2.9-3.9-2.9h-0.8v-0.7l3.9-5h-7.1v-0.9h8.3v0.7l-4,5.1C41.7,147.5,43.2,149,43.2,151.2z"/>
		<path class="st0" d="M45.3,154.2c0-0.5,0.4-0.8,0.8-0.8c0.4,0,0.8,0.3,0.8,0.8c0,0.5-0.4,0.8-0.8,0.8
			C45.7,155,45.3,154.7,45.3,154.2z"/>
		<path class="st0" d="M48.9,148.3c0-4.2,2.1-6.8,5.2-6.8c3.1,0,5.2,2.6,5.2,6.8c0,4.2-2.1,6.8-5.2,6.8
			C51,155,48.9,152.5,48.9,148.3z M58.3,148.3c0-3.7-1.7-5.9-4.2-5.9c-2.5,0-4.2,2.1-4.2,5.9c0,3.7,1.7,5.9,4.2,5.9
			C56.6,154.2,58.3,152,58.3,148.3z"/>
		<path class="st0" d="M66.6,148.4l-3,3.1v3.5h-1v-13.3h1v8.6l8.3-8.6h1.2l-5.9,6l6.3,7.3h-1.2L66.6,148.4z"/>
	</g>
	<polyline class="st3" points="97,392.9 287.9,392.9 422.2,391.6 576.3,393.4 721.3,394 869.3,387.4 937.1,381.9 953.1,261.1 
		966.9,364.3 	"/>
</g>
</svg>
