<svg id="Layer_1" data-name="Layer 1" xmlns="http://www.w3.org/2000/svg" viewBox="0 0 400 133"><defs><style>.cls-1{fill:#1d4289;}.cls-2{fill:#fff;}.cls-3{fill:#c80f2e;}</style></defs><path class="cls-1" d="M156.26,26.73h-1l-6.62,0L141.07,106H152l.82-15.43h6.43l1,15.43h11.44l-7.54-79.27Zm-2.88,53.63,2.41-44.84,2.83,44.84Z"/><path class="cls-1" d="M298,26.75l-7.88,0h-1l-6.62,0L274.92,106h10.93l.83-15.43h6.43l1,15.43h11.45ZM287.23,80.36l2.41-44.84,2.82,44.84Z"/><rect class="cls-1" x="229.81" y="26.73" width="10.81" height="79.3"/><path class="cls-1" d="M218.31,77.88h0a13.77,13.77,0,0,0,7.41-12.21V39.93a13.2,13.2,0,0,0-13.2-13.2H198.28V106h10.81V79.43h1.67l4.3,26.6,11.24,0-3.74-20.32A14.28,14.28,0,0,0,218.31,77.88Zm-9.22-40.95h2.56a3.26,3.26,0,0,1,3.26,3.26V66.5a3.26,3.26,0,0,1-3.26,3.26h-2.56Z"/><polygon class="cls-1" points="175.38 26.73 173.67 26.73 173.67 106.03 184.66 106.03 184.66 69.91 193.08 69.91 193.08 61.08 184.66 61.08 184.66 36.93 194.68 36.93 194.68 26.73 184.66 26.73 175.38 26.73"/><path class="cls-1" d="M261.4,26h-4.88a11.24,11.24,0,0,0-11.24,11.24v58a11.24,11.24,0,0,0,11.24,11.24h4.88a11.24,11.24,0,0,0,11.24-11.24V73.92H262V93.27a3.07,3.07,0,1,1-6.13,0v-54a3.07,3.07,0,0,1,6.13,0V60.08h10.61V37.28A11.24,11.24,0,0,0,261.4,26Z"/><g id="g3029"><path id="rect2987" class="cls-2" d="M103,24.92h19.53a8.54,8.54,0,0,1,8.56,8.52V99.52a8.54,8.54,0,0,1-8.52,8.56H103a8.54,8.54,0,0,1-8.56-8.52V33.48A8.54,8.54,0,0,1,103,24.92Z"/><path id="path2989" class="cls-3" d="M117.71,40.17l0,.28c.6.35.9.63,1.5,1,1.59,1,3.52,2.79,3.29,8.91.45,1.34.65,4,1,4.78a14.12,14.12,0,0,1,1.63,4.26s.24,2.41.55,2.59c1.63.37,1.16.54,1.39.83s1.21.31,1.21,1.19a5,5,0,0,1,.76,1.37V33.55a6.58,6.58,0,0,0-6.57-6.6h-6.29a3,3,0,0,1,1.91,1.46c.81.07,1.76,1.88.27,4.57.66.46.15,1.12-.32,1.9-.15.24-.29.67-.73.65-.59,1.22-1.28,2.37-1.8,2.44a.88.88,0,0,0,0,1,9.1,9.1,0,0,1,2.16,1.24Z"/><path id="path2991" class="cls-3" d="M123.57,106h-.06c2.88-1.76,1.1-5.08.55-7l.1-.33c.15-.27-.16-.9-.16-.9-.36-.3-.44-1.93-.63-2.68-.3-1.22.55-3.35.55-4.07a5.77,5.77,0,0,0-1.54-3c-.25-.28-1-6.46-1.61-8-.9-2.16-1.17-1.81-2.24-4.4-.81-1.8-.17-4.47-2-10.66l.42-.39s-1.48-5.37-2-6.84-1.34-1.57-1.34-1.57l0-.76c.07-.23,1.79-4.72,1.94-4.87s2.49-1.79,2.53-1.54c.2,1.1,1.17,6.69,1.58,7.57s1.85,3.63,2.51,5.33a5.87,5.87,0,1,0,6.88,7.87l0,29.77a6.53,6.53,0,0,1-5.53,6.5Z"/><path id="path2993" class="cls-1" d="M114.19,27c-2.15.83-2.44,1.76-2.52,4.73-.36,0-1.11-.31-.86,1.5,0,0,.14,1.21.62,1-.38,2.62-.08,3.28-1.82,3.46-.38,0-.84.07-1.4.1L108,38c-2.39.23-3.57.07-5.11,2.1a23.4,23.4,0,0,0-2,3.45s-.71,1.75-.93,2.47a43.39,43.39,0,0,0-2.85,6.65c-.16.69-.47.91,0,1.91.66,1.45-.42,1.82,3.3,1.72v.85a6.18,6.18,0,0,0-1.21,1.37,18.05,18.05,0,0,0-.75,4.3c.07,3.17,2.66,5.82,3.42,9l1.73.24a54.53,54.53,0,0,0,6,8.91l0,0c.22.55,1.28,1.23,1.9,1.92a43.55,43.55,0,0,0,4.41,4,23.45,23.45,0,0,0,2.7,1.85,20.7,20.7,0,0,1,.86,2.13c-1.18.95,1.11,2.7,1.81,5.57,0,.39-.67.78.39,1.73-.07,4.36-1.39,6.64.83,7.84H102.93a6.6,6.6,0,0,1-6.44-6.58V33.55a6.59,6.59,0,0,1,6.44-6.6Z"/></g></svg>