<?xml version="1.0" encoding="utf-8"?>
<!-- Generator: Adobe Illustrator 27.4.0, SVG Export Plug-In . SVG Version: 6.00 Build 0)  -->
<svg version="1.1" id="Layer_1" xmlns="http://www.w3.org/2000/svg" xmlns:xlink="http://www.w3.org/1999/xlink" x="0px" y="0px"
	 viewBox="0 0 150 150" style="enable-background:new 0 0 150 150;" xml:space="preserve">
<style type="text/css">
	.st0{fill:#1E184B;}
</style>
<path class="st0" d="M137.7,53.9h-0.5l-1.6,0.8h-1.3l-0.8,0.3l-0.8,0.3l-0.3,0.5l-1.9,0.3c-0.5,0.3-1.1,0.5-1.6,0.8h-1.1l-1.1,0.5
	h-1.6l-2.1-1.9l-1.1-0.3l1.1-1.1v-1.1L122,52h-0.5v-0.5l-1.1-0.8l-1.1-1.1l-0.5-0.3h-0.3l-0.8-0.8l-0.3,0.3l-0.5-1.1l-0.3,0.3h-0.3
	l-0.8-1.3l-0.3-0.5c0,0-0.8-3.7-1.9-4c-1.1,0-0.8-1.1-1.3-0.8c-0.8,0.3-0.8-2.7-0.8-2.7s-0.3-2.4-0.8-2.7c-0.5-0.3,0-0.5,0-0.5
	l-2.1-2.1l-0.5-1.6h0.5c0,0-0.8-1.1-1.1-1.1c-0.3,0-0.5-1.1-0.8-1.1c-0.3,0-1.3-2.1-1.3-2.1l-1.6-2.4v-0.8l-1.3-1.1l-0.3-0.8
	l-0.5-0.8l0.3-0.5l1.1,1.6l0.5,1.1l1.3,1.3h0.5l0.3-2.7c0,0-0.8-2.9-1.9-2.9c0,0-2.9,0.8-3.5-0.3c0,0-1.6-0.3-1.6,0s-1.3-0.5-1.3,0
	s-1.9,1.1-1.9,1.1s-5.1-1.6-6.4-0.8c-0.3-0.5-0.5-0.8-1.1-1.1h-2.4c0,0-0.5-0.8-0.3-0.8s-2.1-1.1-2.9-0.5c0,0-2.9,1.1-1.9,2.7
	c0,0,0,2.1-2.1,1.9c0,0-1.6-1.1-2.4-0.8c0,0-3.5-0.8-3.5-2.7c0,0-3.2-1.3-4-1.3c0,0-2.4,0-2.7-0.5c0,0-0.3-0.3-0.3-1.3
	c0,0-0.8-0.5-0.8,0.3c0,0-1.1,0-1.1-0.8c0,0,2.7-2.1,1.9-2.7c0,0-1.3-1.6-0.5-1.6c0,0,1.1-0.8,0.5-1.1c-0.3,0-0.5,0.3-0.8,0.5
	c0,0-0.5-1.1-0.8-0.8h-1.3l-0.8,0.5c0,0-2.1-0.5-2.1-0.3s-0.5,0.3-1.1,0c-0.5-0.3-1.6,0.3-1.6,0.3h-3.5l-1.3,0.3l-0.5,0.3h-1.9
	c0,0-1.9,0.5-1.9,1.1H46L45.2,12h-1.3L43,11.5l-2.7-0.3c-0.5-0.3-0.8-0.5-1.1-1.1c-0.3-0.8-1.6,0-2.9,2.9c0,0-4.8,1.6-4.8,2.9
	c0,0.8-0.5,0.8-0.5,0.8c-0.5,0.8-0.8,1.6-1.1,2.7c0,0,1.1,1.3-1.3,2.9h-0.3c-0.5,0.3-1.1,0.8-1.3,1.1C26.2,24,25.4,24,24.9,24h-0.3
	c-0.5,0-0.8,0.5-1.3,1.3c-0.5,0.5-1.1,1.1-1.6,1.3c0,0-1.9,1.3-1.3,2.4l-2.9,3.5l-0.5,0.8c0,0-1.9,2.4-1.9,3.2h0.3l0.3,1.1h0.3v1.3
	l-0.5,0.8l0.3,0.5v2.9L15,44.3l-0.5,0.5l-0.5,1.1v1.1l-1.3,1.3c0,0-0.3,0.8,0.3,0.8l0.8,1.6l-0.5,0.8v1.9h0.5l0.5,0.8h1.1v0.5
	l0.5,0.5l0.5,0.5h0.5v1.1l1.1,0.8c0.5,0.8,0.8,1.6,0.8,2.7c0.3,0.3,0.5,0.5,0.8,1.1c0.5,0.5,0.8,0.8,1.1,1.3l1.6,0.8l4.5,3.7
	c1.3,1.3,3.5,1.6,5.3,0.8c1.6-0.5,3.5-1.1,5.3-1.1l2.1,0.8c1.1-0.8,2.4-1.3,3.7-1.6l1.9-0.3l0.3-0.5l5.9-0.3c0,0,1.6,0.8,1.6,1.6
	c0,0,0.8,2.7,2.7,1.9c0,0,1.1-0.5,1.1-0.3l1.3,0.3c0,0,0.3-1.3,0.5-0.5c0,0,0.3,1.1,0.5,0.8c0.3-0.3,0.3,0.5,1.1,0.8h0.8l-0.3,0.5
	l0.5,0.5v0.8l-0.3,0.3v1.3l-0.8,1.3l0.3,0.3h0.5l-0.5,0.8c0,0-0.3,0.5,0.5,0.5l0.3,0.5h-1.1v0.8l-0.8,0.8l0.5,0.8l0.3,1.1
	c0,0,5.3,5.6,5.3,5.9c0,0.5,0.3,1.1,0.3,1.6h0.5v1.3l1.3,2.1l0.3,2.1l-0.5,0.5c0,0,0.5,2.4,1.3,2.7s0,1.3,0,1.3l-0.5,2.4
	c0,0-1.3,0.8-1.3,1.6c0,0.8-0.5,0.5-0.5,0.8s-1.1,4-1.1,4s-0.5,1.3-0.3,1.9c0.3,0.3,0,1.3,0,1.3l0.5,1.3l4.5,8l0.3,3.5l0.5,1.1v1.6
	l0.3,1.3l0.3,1.9l2.4,2.4l2.7,5.9l0.3,1.6h-0.5v0.8l0.8,1.3c0,0,0.8,1.3,1.3,1.3s0.3,0.3,1.6,0.3l0.5-0.5h2.1c0,0,1.3-0.5,1.6-0.3
	c0.8,0,1.6,0,2.4,0c0,0,0.5,0.3,0.8,0.3c0.5,0,1.1,0,1.6,0l-0.3-0.5h1.9l10.1-9.3l1.3-3.2l0.3-1.1v-0.5l-0.5,0.3l0.3-1.1l3.5-1.3
	l1.9-1.6c0,0,0,0-0.3,0c-0.3-0.3-0.5-0.5-0.3-0.8l0.3-2.4c0,0-1.1,0-0.3-1.3l-0.3-1.3c0,0-0.5-0.8,0-1.3l1.6-1.6l1.1-1.1v0.5
	l1.1-0.8v-0.3h0.3V112c0.8-0.3,1.9-0.5,2.7-1.1c0.3-0.3,0.8-0.3,1.3,0l1.1-1.1c0,0,0.8-0.5,0.8-0.8c0-0.3,0.8-0.8,0.8-0.8l1.1-0.5
	L118,107l0.5-1.1l-0.3-1.3l0.3-1.6l-0.5-0.5l0.5-0.3l-0.3-2.1l0.8-1.3v-1.1l-1.1-0.8V96l-0.8-2.1l-0.5-0.5l0.3-0.3l-0.8-1.1l0.5-0.8
	l-0.8-1.3l0,0c-0.5-0.3-0.5-1.1-0.3-1.6l0.8-1.6c0.8-1.1,1.3-2.4,1.9-3.5l1.1-0.8c0,0,0.8-1.3,1.1-1.3l4.3-4.5l2.7-2.4l2.4-1.9v-0.5
	l2.1-1.9c0,0,1.6-2.9,2.1-2.9c0.5-2.1,1.3-4,2.4-5.9c0,0,0.3-1.3,0.8-1.3c0.3,0,0-2.1,0-2.1l0.5-0.5L137.7,53.9L137.7,53.9z"/>
</svg>
