<?xml version="1.0" encoding="utf-8"?>
<!-- Generator: Adobe Illustrator 27.3.1, SVG Export Plug-In . SVG Version: 6.00 Build 0)  -->
<svg version="1.1" id="Layer_1" xmlns="http://www.w3.org/2000/svg" xmlns:xlink="http://www.w3.org/1999/xlink" x="0px" y="0px"
	 viewBox="0 0 1417.3 386.9" style="enable-background:new 0 0 1417.3 386.9;" xml:space="preserve">
<style type="text/css">
	.st0{fill:#1E174B;}
</style>
<g>
	<path class="st0" d="M379.3,198.6c-1,0-1.8,0.7-1.8,1.7c-0.1,1.5-0.2,3.1-0.3,4.6c-0.1,1,0.6,1.8,1.6,1.9l0,0h0.1
		c0.9,0,1.7-0.7,1.8-1.6c0.1-1.6,0.2-3.1,0.3-4.7C381,199.5,380.2,198.7,379.3,198.6C379.3,198.7,379.3,198.7,379.3,198.6z"/>
	<path class="st0" d="M124.7,151c0.3-0.9-0.3-1.9-1.2-2.2c-0.8-0.2-1.7,0.2-2.1,1c-0.5,1.5-1,3-1.5,4.5c-0.3,0.9,0.2,1.9,1.1,2.2
		l0,0c0.1,0,0.3,0.1,0.4,0.1c0.8,0,1.5-0.5,1.8-1.2C123.7,153.9,124.2,152.5,124.7,151z"/>
	<path class="st0" d="M373.3,227.6c-0.4,1.5-0.8,3-1.2,4.4c-0.3,0.9,0.2,1.9,1.2,2.2c0.1,0,0.3,0.1,0.4,0.1c0.8,0,1.5-0.5,1.8-1.2
		c0.5-1.5,0.9-3,1.3-4.6c0.2-0.9-0.3-1.9-1.2-2.1S373.5,226.7,373.3,227.6z"/>
	<path class="st0" d="M373.5,162.1c0.2,0.7,0.8,1.3,1.6,1.3c0.2,0,0.3,0,0.5,0c0.9-0.2,1.5-1.2,1.3-2.1c-0.4-1.5-0.8-3.1-1.3-4.6
		c-0.3-0.9-1.3-1.5-2.2-1.2c-0.9,0.3-1.5,1.2-1.2,2.2l0,0C372.7,159.1,373.1,160.6,373.5,162.1z"/>
	<path class="st0" d="M116,184.1c0.9,0,1.7-0.7,1.8-1.6c0.1-1.5,0.3-3.1,0.5-4.6c0.1-1-0.7-1.8-1.7-1.9c-0.9,0-1.6,0.5-1.8,1.4
		c-0.2,1.6-0.4,3.1-0.5,4.7C114.2,183.1,114.9,184,116,184.1L116,184.1z"/>
	<path class="st0" d="M115.9,203.9c-1,0.1-1.7,0.9-1.6,1.9c0.1,1.6,0.3,3.2,0.5,4.7c0.1,0.8,0.8,1.5,1.7,1.5c0.1,0,0.2,0,0.3,0
		c1-0.1,1.7-1,1.5-2l0,0c-0.2-1.5-0.3-3-0.5-4.6C117.7,204.5,116.8,203.8,115.9,203.9z"/>
	<path class="st0" d="M123,232.6c-0.3-0.9-1.3-1.4-2.2-1.1c-0.9,0.3-1.3,1.2-1.1,2.1c0.5,1.5,1,3,1.5,4.5c0.2,0.7,0.9,1.2,1.6,1.2
		c0.2,0,0.4,0,0.7-0.1c0.9-0.3,1.4-1.3,1.1-2.2C123.9,235.5,123.4,234.1,123,232.6z"/>
	<path class="st0" d="M379.1,191.1h0.1c1,0,1.7-0.8,1.7-1.8c-0.1-1.6-0.1-3.2-0.3-4.7c-0.1-1-0.9-1.7-1.8-1.6l0,0
		c-1,0.1-1.7,0.9-1.6,1.9c0.1,1.5,0.2,3.1,0.2,4.6C377.5,190.3,378.3,191.1,379.1,191.1z"/>
	<path class="st0" d="M418,193.9c0-91.5-73.8-166.1-165-167.5l0,0h-2.5l0,0l0,0H248l0,0c-91.2,1.4-165,76-165,167.5
		S156.8,360,248,361.4l0,0h2.5l0,0l0,0h2.5l0,0C344.3,360.1,418,285.5,418,193.9z M253.1,356.4v-39c-0.6,0-1.1,0-1.7,0
		c-1.1,0-2.2,0-3.3,0v39c-88.4-1.4-160-73.7-160-162.5s71.5-161.1,160-162.5V78c0.5,0,1.1,0,1.6,0c1.1,0,2.3,0,3.4,0V31.4
		c88.4,1.4,160,73.7,160,162.5S341.5,355.1,253.1,356.4z"/>
	<path class="st0" d="M364.8,130.5c-0.5-0.9-1.5-1.2-2.4-0.7s-1.2,1.5-0.7,2.4c0.7,1.3,1.4,2.7,2.1,4.1c0.3,0.6,0.8,1,1.5,1
		c0.3,0,0.6,0,0.9-0.2c0.9-0.4,1.2-1.5,0.8-2.3C366.3,133.3,365.6,131.9,364.8,130.5z"/>
	<path class="st0" d="M194.1,75.5c0.3,0,0.5,0,0.8-0.2c1.4-0.6,2.8-1.2,4.2-1.8c0.9-0.4,1.3-1.5,0.8-2.3c-0.4-0.8-1.3-1.2-2.1-0.9
		l0,0c-1.5,0.6-2.9,1.2-4.4,1.8c-0.9,0.4-1.3,1.4-0.9,2.3C192.8,75.1,193.4,75.5,194.1,75.5z"/>
	<path class="st0" d="M279.7,320.5L279.7,320.5c-1.5,0.4-3,0.7-4.5,1.1c-0.9,0.2-1.5,1.1-1.3,2.1c0.2,0.8,0.8,1.3,1.6,1.4
		c0.1,0,0.3,0,0.5,0c1.5-0.3,3.1-0.7,4.6-1.1c0.9-0.2,1.5-1.2,1.3-2.1C281.6,320.9,280.7,320.3,279.7,320.5z"/>
	<path class="st0" d="M220.7,67c0.1,0,0.3,0,0.4,0c1.5-0.3,3-0.6,4.5-0.8c1-0.2,1.6-1.1,1.4-2c-0.2-1-1.1-1.6-2-1.4l0,0
		c-1.6,0.3-3.1,0.5-4.7,0.9c-1,0.2-1.6,1.1-1.4,2C219.2,66.4,219.9,67,220.7,67z"/>
	<path class="st0" d="M348.7,107.2c-0.6-0.7-1.7-0.8-2.5-0.2c-0.7,0.6-0.8,1.7-0.2,2.5c1,1.2,2,2.3,3,3.5c0.6,0.8,1.7,0.9,2.5,0.3
		c0.8-0.6,0.9-1.7,0.3-2.5C350.7,109.6,349.7,108.4,348.7,107.2z"/>
	<path class="st0" d="M148,107.8c0.3,0.3,0.7,0.4,1.1,0.4c0.5,0,1-0.2,1.4-0.6c1-1.1,2.1-2.3,3.1-3.4c0.7-0.7,0.7-1.8,0-2.5
		s-1.8-0.7-2.5,0l0,0c-1.1,1.1-2.2,2.3-3.2,3.5C147.2,106.1,147.2,107.2,148,107.8L148,107.8z"/>
	<path class="st0" d="M192.6,316.3c1.4,0.6,2.9,1.3,4.4,1.9c0.9,0.3,1.9-0.2,2.2-1.1c0.3-0.8-0.1-1.7-0.9-2.1
		c-1.4-0.6-2.9-1.2-4.2-1.8c-0.9-0.4-1.9,0-2.3,0.9S191.7,315.9,192.6,316.3z"/>
	<path class="st0" d="M219.5,325.1L219.5,325.1c1.5,0.3,3.1,0.6,4.7,0.9h0.2c1,0,1.8-0.7,1.8-1.7c0-0.9-0.6-1.6-1.4-1.8l0,0
		c-1.5-0.3-3-0.6-4.5-0.9c-0.9-0.2-1.9,0.4-2.1,1.3C218,324,218.6,324.9,219.5,325.1z"/>
	<path class="st0" d="M307.9,75.2L307.9,75.2c-1.4-0.7-2.8-1.4-4.3-2c-0.9-0.5-1.9-0.1-2.4,0.7s-0.1,1.9,0.7,2.4
		c0.1,0,0.1,0.1,0.2,0.1c1.4,0.7,2.8,1.3,4.2,2c0.2,0.1,0.5,0.2,0.7,0.2c1,0.1,1.8-0.7,1.8-1.7C308.9,76.2,308.6,75.5,307.9,75.2z"
		/>
	<path class="st0" d="M328,87.8c-0.8-0.6-1.9-0.4-2.5,0.3c-0.6,0.8-0.4,1.9,0.3,2.5c1.2,0.9,2.4,1.9,3.6,2.9c0.3,0.2,0.6,0.4,1,0.4
		c1,0,1.8-0.7,1.8-1.7c0-0.5-0.2-1.1-0.6-1.4C330.5,89.7,329.2,88.7,328,87.8z"/>
	<path class="st0" d="M281.4,65.2L281.4,65.2c-1.5-0.4-3.1-0.8-4.6-1.1c-0.9-0.2-1.9,0.4-2.1,1.3c-0.2,0.9,0.4,1.9,1.3,2.1
		c1.5,0.3,3,0.7,4.5,1.1c0.1,0,0.2,0.1,0.4,0.1c1,0,1.8-0.7,1.8-1.7C282.7,66.1,282.2,65.4,281.4,65.2z"/>
	<path class="st0" d="M169.8,89.5c0.4,0,0.8-0.1,1.1-0.3c1.2-0.9,2.5-1.8,3.8-2.6c0.8-0.5,1-1.6,0.5-2.4c-0.5-0.8-1.6-1-2.4-0.5
		c-1.3,0.9-2.6,1.8-3.9,2.7c-0.8,0.6-0.9,1.7-0.4,2.5C168.8,89.2,169.3,89.5,169.8,89.5z"/>
	<path class="st0" d="M365.9,252.7C365.9,252.7,365.8,252.7,365.9,252.7c-0.9-0.4-1.9-0.1-2.4,0.7c-0.7,1.4-1.4,2.8-2.2,4.1
		c-0.5,0.8-0.2,1.9,0.7,2.4l0,0c0.2,0.1,0.5,0.2,0.8,0.2c0.7,0,1.3-0.3,1.6-0.9c0.8-1.4,1.5-2.8,2.2-4.2
		C367,254.2,366.7,253.1,365.9,252.7z"/>
	<path class="st0" d="M350.8,276.3c-0.7-0.6-1.8-0.5-2.5,0.2c-1,1.2-2,2.4-3,3.5c-0.6,0.7-0.6,1.8,0.2,2.5l0,0
		c0.3,0.3,0.7,0.4,1.1,0.4c0.5,0,1.1-0.2,1.4-0.6c1-1.2,2.1-2.4,3-3.6C351.7,278,351.6,277,350.8,276.3
		C350.9,276.3,350.9,276.3,350.8,276.3z"/>
	<path class="st0" d="M131.9,130.7c0.2,0.1,0.5,0.2,0.8,0.2c0.7,0,1.3-0.3,1.6-0.9c0.8-1.3,1.5-2.7,2.4-4c0.5-0.8,0.2-1.9-0.6-2.4
		s-1.9-0.3-2.4,0.5l0,0c-0.8,1.3-1.6,2.7-2.4,4.1C130.8,129.2,131.1,130.3,131.9,130.7z"/>
	<path class="st0" d="M136.2,262c-0.8-1.3-1.6-2.6-2.3-4c-0.4-0.9-1.5-1.2-2.4-0.8s-1.2,1.5-0.8,2.4c0,0,0,0.1,0.1,0.1
		c0.8,1.4,1.6,2.8,2.4,4.1c0.3,0.5,0.8,0.8,1.4,0.8c0.4,0,0.7-0.1,1-0.2C136.4,263.9,136.7,262.8,136.2,262L136.2,262z"/>
	<path class="st0" d="M153,283.9c-1.1-1.1-2.1-2.2-3.1-3.4c-0.6-0.7-1.7-0.8-2.5-0.2c-0.7,0.6-0.8,1.7-0.2,2.5
		c1,1.2,2.1,2.4,3.2,3.5c0.3,0.3,0.7,0.5,1.2,0.5s0.9-0.1,1.3-0.5C153.6,285.7,153.6,284.6,153,283.9L153,283.9z"/>
	<path class="st0" d="M168.1,302.1L168.1,302.1c1.3,0.9,2.6,1.9,3.9,2.8c0.2,0.1,0.4,0.2,0.5,0.2c0.9,0.2,1.9-0.3,2.1-1.3
		c0.2-0.7-0.1-1.4-0.7-1.9c-1.3-0.9-2.5-1.8-3.8-2.7c-0.8-0.6-1.9-0.4-2.4,0.4C167.2,300.4,167.4,301.5,168.1,302.1z"/>
	<path class="st0" d="M331.3,296.2c-0.6-0.8-1.7-0.9-2.5-0.3c-1.2,1-2.4,1.9-3.6,2.8c-0.4,0.3-0.7,0.8-0.7,1.3v0.1c0,0,0,0,0,0.1
		c0,0.4,0.1,0.8,0.4,1.1c0.3,0.4,0.8,0.7,1.3,0.7c0.4,0,0.8-0.1,1.1-0.3c1.3-1,2.5-1.9,3.7-2.9c0.5-0.4,0.7-1,0.6-1.6
		C331.6,296.8,331.5,296.4,331.3,296.2z"/>
	<path class="st0" d="M305.5,310.8L305.5,310.8c-1.4,0.6-2.8,1.3-4.2,1.9c-0.9,0.4-1.3,1.5-0.8,2.3c0.2,0.5,0.6,0.8,1.1,0.9
		c0.4,0.1,0.8,0.1,1.2-0.1c1.4-0.7,2.9-1.3,4.3-2c0.9-0.4,1.2-1.5,0.8-2.4C307.5,310.8,306.4,310.4,305.5,310.8z"/>
	<path class="st0" d="M221.4,226.6c-2.3-2-4.3-4.3-6.1-6.8l-35.8,19.5c13.3,21.1,35.5,35.1,60.3,37.8l8.8,14l8.7-14
		c23.3-2.5,44.3-14.9,57.9-34l-36.3-19.8C263.9,240.1,238.2,241.6,221.4,226.6z"/>
	<path class="st0" d="M286.6,181.1c1.8,4.6,2.8,9.4,2.9,14.3c0.1,7.6-2,15.1-5.9,21.6l35.8,19.5c13.3-22.9,14.5-51,3.1-74.9
		L286.6,181.1z"/>
	<path class="st0" d="M248,155c14.2-0.2,27.4,7.1,35,19.1l35.8-19.5c-14.7-24.9-41.3-40.2-70.2-40.3h-1.2
		c-30.1,0.4-57.6,17.4-71.5,44.2l36,19.6C218.7,164.2,232.6,155.3,248,155z"/>
	<path class="st0" d="M209.1,185.4l-36.5-19.8c-4,10-6,20.7-5.8,31.5c0.2,12.3,3.2,24.5,8.8,35.4l35.8-19.5
		C207.3,204.4,206.5,194.6,209.1,185.4z"/>
	<path class="st0" d="M272.1,189h-0.2l-0.6,0.3h-0.5l-0.3,0.1l-0.3,0.1l-0.1,0.2l-0.7,0.1c-0.2,0.1-0.4,0.2-0.6,0.3h-0.4l-0.4,0.2
		h-0.6l-0.8-0.7l-0.4-0.1l0.4-0.4v-0.4l-0.4-0.4H266v-0.2l-0.4-0.3l-0.4-0.4l-0.2-0.1h-0.1l-0.3-0.3l-0.1,0.1l-0.2-0.4l-0.1,0.1
		h-0.1l-0.3-0.5l-0.1-0.2c0,0-0.3-1.4-0.7-1.5c-0.4,0-0.3-0.4-0.5-0.3c-0.3,0.1-0.3-1-0.3-1s-0.1-0.9-0.3-1s0-0.2,0-0.2l-0.8-0.8
		l-0.2-0.6h0.2c0,0-0.3-0.4-0.4-0.4s-0.2-0.4-0.3-0.4s-0.5-0.8-0.5-0.8l-0.6-0.9v-0.3l-0.5-0.4l-0.1-0.3l-0.2-0.3l0.1-0.2l0.4,0.6
		l0.2,0.4l0.5,0.5h0.2l0.1-1c0,0-0.3-1.1-0.7-1.1c0,0-1.1,0.3-1.3-0.1c0,0-0.6-0.1-0.6,0s-0.5-0.2-0.5,0s-0.7,0.4-0.7,0.4
		s-1.9-0.6-2.4-0.3c-0.1-0.2-0.2-0.3-0.4-0.4h-0.9c0,0-0.2-0.3-0.1-0.3s-0.8-0.4-1.1-0.2c0,0-1.1,0.4-0.7,1c0,0,0,0.8-0.8,0.7
		c0,0-0.6-0.4-0.9-0.3c0,0-1.3-0.3-1.3-1c0,0-1.2-0.5-1.5-0.5c0,0-0.9,0-1-0.2c0,0-0.1-0.1-0.1-0.5c0,0-0.3-0.2-0.3,0.1
		c0,0-0.4,0-0.4-0.3c0,0,1-0.8,0.7-1c0,0-0.5-0.6-0.2-0.6c0,0,0.4-0.3,0.2-0.4c-0.1,0-0.2,0.1-0.3,0.2c0,0-0.2-0.4-0.3-0.3h-0.5
		l-0.3,0.2c0,0-0.8-0.2-0.8-0.1s-0.2,0.1-0.4,0s-0.6,0.1-0.6,0.1h-1.3l-0.5,0.1l-0.2,0.1h-0.7c0,0-0.7,0.2-0.7,0.4h-0.7l-0.3,0.4
		h-0.5l-0.3-0.2l-1-0.1c-0.2-0.1-0.3-0.2-0.4-0.4c-0.1-0.3-0.6,0-1.1,1.1c0,0-1.8,0.6-1.8,1.1c0,0.3-0.2,0.3-0.2,0.3
		c-0.2,0.3-0.3,0.6-0.4,1c0,0,0.4,0.5-0.5,1.1h-0.1c-0.2,0.1-0.4,0.3-0.5,0.4c-0.3,0.2-0.6,0.2-0.8,0.2h-0.1c-0.2,0-0.3,0.2-0.5,0.5
		c-0.2,0.2-0.4,0.4-0.6,0.5c0,0-0.7,0.5-0.5,0.9L227,181l-0.2,0.3c0,0-0.7,0.9-0.7,1.2h0.1l0.1,0.4h0.1v0.5l-0.2,0.3l0.1,0.2v1.1
		l-0.2,0.4l-0.2,0.2l-0.2,0.4v0.4l-0.5,0.5c0,0-0.1,0.3,0.1,0.3l0.3,0.6l-0.2,0.3v0.7h0.2l0.2,0.3h0.4v0.2l0.2,0.2l0.2,0.2h0.2v0.4
		l0.4,0.3c0.2,0.3,0.3,0.6,0.3,1c0.1,0.1,0.2,0.2,0.3,0.4c0.2,0.2,0.3,0.3,0.4,0.5l0.6,0.3l1.7,1.4c0.5,0.5,1.3,0.6,2,0.3
		c0.6-0.2,1.3-0.4,2-0.4l0.8,0.3c0.4-0.3,0.9-0.5,1.4-0.6l0.7-0.1l0.1-0.2l2.2-0.1c0,0,0.6,0.3,0.6,0.6c0,0,0.3,1,1,0.7
		c0,0,0.4-0.2,0.4-0.1l0.5,0.1c0,0,0.1-0.5,0.2-0.2c0,0,0.1,0.4,0.2,0.3s0.1,0.2,0.4,0.3h0.3l-0.1,0.2l0.2,0.2v0.3l-0.1,0.1v0.5
		l-0.3,0.5l0.1,0.1h0.2l-0.2,0.3c0,0-0.1,0.2,0.2,0.2l0.1,0.2H243v0.3l-0.3,0.3l0.2,0.3l0.1,0.4c0,0,2,2.1,2,2.2
		c0,0.2,0.1,0.4,0.1,0.6h0.2v0.5l0.5,0.8l0.1,0.8l-0.2,0.2c0,0,0.2,0.9,0.5,1s0,0.5,0,0.5l-0.2,0.9c0,0-0.5,0.3-0.5,0.6
		s-0.2,0.2-0.2,0.3s-0.4,1.5-0.4,1.5s-0.2,0.5-0.1,0.7c0.1,0.1,0,0.5,0,0.5l0.2,0.5l1.7,3l0.1,1.3l0.2,0.4v0.6l0.1,0.5l0.1,0.7
		l0.9,0.9l1,2.2l0.1,0.6H249v0.3l0.3,0.5c0,0,0.3,0.5,0.5,0.5s0.1,0.1,0.6,0.1l0.2-0.2h0.8c0,0,0.5-0.2,0.6-0.1c0.3,0,0.6,0,0.9,0
		c0,0,0.2,0.1,0.3,0.1c0.2,0,0.4,0,0.6,0l-0.1-0.2h0.7l3.8-3.5l0.5-1.2l0.1-0.4v-0.2l-0.2,0.1l0.1-0.4l1.3-0.5l0.7-0.6
		c0,0,0,0-0.1,0c-0.1-0.1-0.2-0.2-0.1-0.3l0.1-0.9c0,0-0.4,0-0.1-0.5l-0.1-0.5c0,0-0.2-0.3,0-0.5l0.6-0.6l0.4-0.4v0.2l0.4-0.3V211
		h0.1v-0.2c0.3-0.1,0.7-0.2,1-0.4c0.1-0.1,0.3-0.1,0.5,0l0.4-0.4c0,0,0.3-0.2,0.3-0.3s0.3-0.3,0.3-0.3l0.4-0.2l-0.1-0.3l0.2-0.4
		l-0.1-0.5l0.1-0.6l-0.2-0.2l0.2-0.1l-0.1-0.8l0.3-0.5v-0.4l-0.4-0.3v-0.3l-0.3-0.8l-0.2-0.2l0.1-0.1l-0.3-0.4l0.2-0.3l-0.3-0.5l0,0
		c-0.2-0.1-0.2-0.4-0.1-0.6l0.3-0.6c0.3-0.4,0.5-0.9,0.7-1.3l0.4-0.3c0,0,0.3-0.5,0.4-0.5l1.6-1.7l1-0.9l0.9-0.7v-0.2l0.8-0.7
		c0,0,0.6-1.1,0.8-1.1c0.2-0.8,0.5-1.5,0.9-2.2c0,0,0.1-0.5,0.3-0.5c0.1,0,0-0.8,0-0.8l0.2-0.2L272.1,189L272.1,189z"/>
</g>
<g>
	<path class="st0" d="M509.7,216.6c0,11.9-9.7,21.5-21.6,21.6h-22c-1.5,0-3-0.6-4-1.7c-1.1-1-1.7-2.5-1.7-3.9v-77.5
		c0-1.5,0.6-2.9,1.7-3.9c1.1-1.1,2.5-1.7,4-1.7h22c5.7-0.1,11.2,2.2,15.2,6.3c4.1,4,6.4,9.5,6.3,15.2L509.7,216.6z M498.5,216.6
		v-45.7c0-2.7-1.1-5.4-3-7.2c-1.9-2-4.6-3-7.3-3h-16c-0.4,0-0.6,0.2-0.6,0.7v64.9c0,0.5,0.2,0.7,0.6,0.7h16
		C493.8,227,498.5,222.4,498.5,216.6L498.5,216.6z"/>
	<path class="st0" d="M577.2,216.9c0,11.9-9.7,21.5-21.6,21.6h-6.2c-11.9,0-21.5-9.7-21.6-21.6v-61.8c0-3.1,2.5-5.6,5.6-5.6l0,0
		c1.5,0,2.9,0.6,3.9,1.7c1.1,1,1.7,2.5,1.6,3.9V217c0,2.7,1,5.4,3,7.3c1.9,2,4.6,3,7.3,3h6.2c2.7,0,5.4-1,7.3-3c2-1.9,3-4.5,3-7.3
		v-61.9c0-1.5,0.6-2.9,1.6-3.9c1-1.1,2.4-1.7,3.9-1.7c3.1,0,5.6,2.5,5.7,5.6l0,0L577.2,216.9z"/>
	<path class="st0" d="M661.1,232.6c-0.1,3.1-2.7,5.5-5.8,5.4c-2.9-0.1-5.2-2.5-5.4-5.4v-52.3c0-0.1-0.1-0.2-0.2-0.2
		c-0.1,0-0.3,0-0.3,0.1l-16,32.8c-1.4,2.8-4.8,3.8-7.6,2.4c-1-0.5-1.9-1.4-2.4-2.4l-16-32.8c-0.1-0.1-0.2-0.1-0.3-0.1
		c-0.2,0.1-0.2,0.2-0.2,0.2v52.3c-0.1,3.1-2.7,5.5-5.8,5.4c-2.9-0.1-5.2-2.5-5.4-5.4v-77.5c0-3.1,2.4-5.6,5.5-5.6c0,0,0,0,0.1,0
		c2.2-0.1,4.2,1.1,5,3.1l22,44.5c0.1,0.3,0.3,0.3,0.4-0.1l22-44.5c0.9-2,2.9-3.1,5.1-3c1.5,0,2.9,0.5,4,1.6c1.1,1,1.7,2.5,1.7,4
		L661.1,232.6z"/>
	<path class="st0" d="M736.1,231c0.1,0.5,0.2,1.1,0.2,1.6c0,3.1-2.5,5.6-5.6,5.6c-2.5,0.1-4.8-1.5-5.3-4l-3.8-12.4
		c-0.1-0.4-0.4-0.6-0.8-0.6h-25.9c-0.5,0-0.7,0.2-0.8,0.5l-3.7,12.4c-0.5,2.5-2.8,4.1-5.3,4c-3.1,0-5.6-2.5-5.7-5.6l0,0
		c0-0.5,0.1-1.1,0.2-1.6l22.8-77.5c0.9-3,4-4.6,7-3.8c1.8,0.5,3.2,2,3.8,3.8L736.1,231z M717.9,209.3l-9.7-33.4
		c0-0.1-0.1-0.2-0.3-0.2s-0.3,0.1-0.3,0.2l-10,33.4c-0.2,0.5,0,0.7,0.5,0.7h19.3C717.9,210,718.1,209.8,717.9,209.3L717.9,209.3z"/>
	<path class="st0" d="M799.2,160.4c0.5,1.2-0.1,2.6-1.3,3.1c-1.1,0.5-2.4,0-3-1.1c-2.7-5.6-7.2-8.5-13.4-8.5h-6.8
		c-8.2,0-14.8,6.7-14.8,14.9V219c0,8.1,6.6,14.7,14.8,14.7h6.8c6.2,0,10.6-2.8,13.3-8.4c0.7-1.5,1.8-1.8,3.3-1
		c1.1,0.3,1.7,1.4,1.4,2.5c-0.1,0.3-0.2,0.5-0.4,0.7c-1.5,3.4-4,6.2-7.2,8.1c-3.1,2-6.7,3-10.4,3h-6.7c-10.8,0-19.6-8.9-19.6-19.7
		v-50.1c0-10.8,8.8-19.6,19.6-19.6h6.7c3.7,0,7.3,1,10.4,3C795.1,154.1,797.6,157,799.2,160.4z"/>
	<path class="st0" d="M864.5,218.9c0,10.8-8.8,19.6-19.6,19.6h-6.7c-10.8,0-19.6-8.8-19.6-19.6v-50.1c0-10.8,8.8-19.6,19.6-19.6h6.7
		c10.8,0,19.6,8.8,19.6,19.6V218.9z M859.7,219v-50.2c0-8.2-6.6-14.8-14.8-14.9h-6.8c-8.2,0-14.8,6.7-14.8,14.9V219
		c0,3.9,1.5,7.7,4.4,10.4c2.7,2.8,6.5,4.4,10.5,4.3h6.8C853,233.7,859.6,227.1,859.7,219L859.7,219z"/>
	<path class="st0" d="M924.8,235.8c0,1.6-0.8,2.3-2.5,2.3h-36.2c-1.7,0-2.5-0.8-2.5-2.4v-84c-0.2-1.2,0.7-2.2,1.8-2.4
		c0.2,0,0.4,0,0.6,0c1.2-0.1,2.2,0.7,2.3,1.8c0,0.2,0,0.4,0,0.6v81c0,0.3,0.2,0.5,0.4,0.6c0.1,0,0.1,0,0.2,0h33.3
		c1.2-0.2,2.3,0.6,2.5,1.8C924.9,235.4,924.9,235.6,924.8,235.8z"/>
	<path class="st0" d="M985.2,235.8c0,1.6-0.8,2.3-2.5,2.3h-36.2c-1.7,0-2.5-0.8-2.5-2.4v-84c-0.2-1.2,0.7-2.2,1.8-2.4
		c0.2,0,0.4,0,0.6,0c1.2-0.1,2.2,0.7,2.3,1.8c0,0.2,0,0.4,0,0.6v81c0,0.3,0.2,0.5,0.4,0.6c0.1,0,0.1,0,0.2,0h33.3
		c1.2-0.2,2.3,0.6,2.5,1.8C985.2,235.4,985.2,235.6,985.2,235.8z"/>
	<path class="st0" d="M1045.6,235.8c0,1.6-0.8,2.3-2.5,2.3h-36.2c-1.7,0-2.5-0.8-2.5-2.4v-84c0-1.6,0.8-2.4,2.5-2.4h36.2
		c1.7,0,2.5,0.8,2.5,2.4s-0.8,2.4-2.5,2.4h-33.3c-0.4,0-0.6,0.2-0.6,0.7v35.8c0,0.5,0.2,0.7,0.6,0.7h28.5c1.1-0.2,2.2,0.6,2.4,1.7
		c0,0.2,0,0.4,0,0.6c0.2,1.2-0.6,2.3-1.8,2.5c-0.2,0-0.4,0-0.6,0h-28.5c-0.3,0-0.5,0.2-0.6,0.4v0.1v36c0,0.3,0.2,0.5,0.4,0.6
		c0.1,0,0.1,0,0.2,0h33.3c1.2-0.2,2.3,0.6,2.5,1.8C1045.6,235.4,1045.6,235.6,1045.6,235.8z"/>
	<path class="st0" d="M1108.9,160.4c0.5,1.2-0.1,2.6-1.3,3.1c-1.1,0.5-2.4,0-3-1.1c-2.7-5.6-7.2-8.5-13.4-8.5h-6.8
		c-8.2,0-14.8,6.7-14.8,14.9V219c0.1,8.1,6.6,14.7,14.8,14.7h6.8c6.2,0,10.6-2.8,13.3-8.4c0.7-1.5,1.8-1.8,3.3-1
		c1.1,0.3,1.7,1.4,1.4,2.5c-0.1,0.3-0.2,0.5-0.4,0.7c-1.5,3.4-4,6.2-7.2,8.1c-3.1,2-6.7,3-10.4,3h-6.7c-10.8,0-19.6-8.9-19.6-19.7
		v-50.1c0-10.8,8.8-19.6,19.6-19.6h6.7c3.7,0,7.3,1,10.4,3C1104.8,154.1,1107.4,157,1108.9,160.4z"/>
	<path class="st0" d="M1174.2,151.8c0.2,1.2-0.6,2.2-1.8,2.4c-0.2,0-0.4,0-0.6,0h-17.6c-0.4,0-0.6,0.2-0.6,0.7v80.9
		c0.2,1.1-0.6,2.2-1.8,2.4c-0.2,0-0.4,0-0.6,0c-1.2,0.2-2.3-0.6-2.4-1.8c0-0.2,0-0.4,0-0.6v-80.9c0-0.5-0.2-0.7-0.6-0.7h-17.6
		c-1.3,0.1-2.5-0.9-2.6-2.2s0.9-2.5,2.2-2.5c0.1,0,0.2,0,0.3,0h41.1c1.2-0.2,2.2,0.6,2.4,1.8
		C1174.2,151.4,1174.2,151.6,1174.2,151.8z"/>
	<path class="st0" d="M1198.3,235.8c0.2,1.2-0.7,2.3-1.9,2.4c-0.2,0-0.4,0-0.6,0c-1.2,0.1-2.2-0.7-2.3-1.8c0-0.2,0-0.4,0-0.6v-84
		c-0.2-1.1,0.6-2.2,1.7-2.4c0.2,0,0.4,0,0.6,0c1.2-0.2,2.3,0.6,2.4,1.8c0,0.2,0,0.4,0,0.6v84H1198.3z"/>
	<path class="st0" d="M1271.4,152.6l-24.7,83.9c-0.3,1.1-1.3,1.8-2.4,1.7c-1.1,0-2-0.7-2.3-1.7l-24.7-83.9c-0.5-1.5,0.1-2.5,1.7-3
		c1.1-0.5,2.3,0,2.8,1c0.1,0.2,0.1,0.4,0.2,0.6l21.9,75.1c0.1,0.1,0.2,0.1,0.3,0.1c0.2,0,0.3,0,0.4-0.1l22-75.1
		c0.1-1.1,1.2-1.9,2.3-1.8c0.2,0,0.4,0.1,0.6,0.2c1.2,0.2,2,1.2,1.8,2.4C1271.6,152.2,1271.5,152.4,1271.4,152.6z"/>
	<path class="st0" d="M1331.8,235.8c0,1.6-0.8,2.3-2.5,2.3h-36.2c-1.7,0-2.5-0.8-2.5-2.4v-84c0-1.6,0.8-2.4,2.5-2.4h36.2
		c1.7,0,2.5,0.8,2.5,2.4s-0.8,2.4-2.5,2.4H1296c-0.4,0-0.6,0.2-0.6,0.7v35.8c0,0.5,0.2,0.7,0.6,0.7h28.5c1.1-0.2,2.2,0.6,2.4,1.7
		c0,0.2,0,0.4,0,0.6c0.2,1.2-0.6,2.3-1.8,2.5c-0.2,0-0.4,0-0.6,0H1296c-0.3,0-0.5,0.2-0.6,0.4v0.1v36c0,0.3,0.2,0.5,0.4,0.6
		c0.1,0,0.1,0,0.2,0h33.3c1.2-0.2,2.3,0.7,2.5,1.9C1331.8,235.4,1331.8,235.6,1331.8,235.8z"/>
</g>
</svg>
