<?xml version="1.0" encoding="UTF-8"?><svg xmlns="http://www.w3.org/2000/svg" xmlns:xlink="http://www.w3.org/1999/xlink" viewBox="0 0 550.51 500"><defs><style>.cls-1{fill:url(#radial-gradient-7);}.cls-1,.cls-2,.cls-3,.cls-4,.cls-5,.cls-6,.cls-7,.cls-8,.cls-9,.cls-10{mix-blend-mode:multiply;}.cls-2{fill:url(#radial-gradient-4);}.cls-11{isolation:isolate;}.cls-11,.cls-12{fill:none;}.cls-13{fill:#f27226;}.cls-14{fill:#e70f8a;}.cls-15,.cls-16,.cls-17,.cls-18,.cls-19,.cls-20{fill:#fff;}.cls-21{fill:#e8242d;}.cls-22{fill:#221e1e;}.cls-23{fill:#5d6eb3;}.cls-24{fill:#4cb649;}.cls-25{fill:url(#Degradado_sin_nombre_492);filter:url(#drop-shadow-3);}.cls-3{fill:url(#linear-gradient);}.cls-3,.cls-4,.cls-5,.cls-6,.cls-7{opacity:.2;}.cls-26{fill:url(#radial-gradient-11);}.cls-27{fill:url(#radial-gradient-15);}.cls-28{fill:url(#radial-gradient-12);}.cls-29{fill:url(#radial-gradient-14);}.cls-4{fill:url(#linear-gradient-7);}.cls-5{fill:url(#linear-gradient-5);}.cls-6{fill:url(#linear-gradient-9);}.cls-7{fill:url(#linear-gradient-3);}.cls-30{fill:url(#radial-gradient-6);}.cls-31{fill:url(#radial-gradient-5);}.cls-32{fill:url(#radial-gradient-3);}.cls-33{fill:url(#radial-gradient-9);}.cls-34{fill:url(#radial-gradient-8);}.cls-35{fill:url(#radial-gradient-2);}.cls-36{fill:url(#linear-gradient-8);}.cls-37{fill:url(#linear-gradient-4);}.cls-38{fill:url(#linear-gradient-2);}.cls-39{fill:url(#linear-gradient-6);}.cls-8{fill:url(#radial-gradient);}.cls-9{fill:url(#radial-gradient-13);}.cls-10{fill:url(#radial-gradient-10);}.cls-16{filter:url(#drop-shadow-5);}.cls-17{filter:url(#drop-shadow-7);}.cls-18{filter:url(#drop-shadow-4);}.cls-19{filter:url(#drop-shadow-1);}.cls-20{filter:url(#drop-shadow-6);}.cls-12{filter:url(#drop-shadow-2);}.cls-40{fill:url(#linear-gradient-10);}</style><filter id="drop-shadow-1" filterUnits="userSpaceOnUse"><feOffset dx="4.23" dy="4.23"/><feGaussianBlur result="blur" stdDeviation="4.23"/><feFlood flood-color="#000" flood-opacity=".15"/><feComposite in2="blur" operator="in"/><feComposite in="SourceGraphic"/></filter><filter id="drop-shadow-2" filterUnits="userSpaceOnUse"><feOffset dx="2.86" dy=".95"/><feGaussianBlur result="blur-2" stdDeviation="1.9"/><feFlood flood-color="#bdb7b8" flood-opacity=".7"/><feComposite in2="blur-2" operator="in"/><feComposite in="SourceGraphic"/></filter><linearGradient id="Degradado_sin_nombre_492" x1="129.87" y1="168.75" x2="129.87" y2="333.88" gradientTransform="translate(214.31 -18.81) rotate(45)" gradientUnits="userSpaceOnUse"><stop offset="0" stop-color="#fff"/><stop offset=".14" stop-color="#fff"/><stop offset=".82" stop-color="#fff"/><stop offset="1" stop-color="#e0dfdf"/></linearGradient><filter id="drop-shadow-3" filterUnits="userSpaceOnUse"><feOffset dx="4.76" dy=".95"/><feGaussianBlur result="blur-3" stdDeviation="1.9"/><feFlood flood-color="#bdb7b8" flood-opacity=".7"/><feComposite in2="blur-3" operator="in"/><feComposite in="SourceGraphic"/></filter><filter id="drop-shadow-4" filterUnits="userSpaceOnUse"><feOffset dx="4.23" dy="4.23"/><feGaussianBlur result="blur-4" stdDeviation="4.23"/><feFlood flood-color="#000" flood-opacity=".15"/><feComposite in2="blur-4" operator="in"/><feComposite in="SourceGraphic"/></filter><filter id="drop-shadow-5" filterUnits="userSpaceOnUse"><feOffset dx="4.23" dy="4.23"/><feGaussianBlur result="blur-5" stdDeviation="4.23"/><feFlood flood-color="#000" flood-opacity=".15"/><feComposite in2="blur-5" operator="in"/><feComposite in="SourceGraphic"/></filter><filter id="drop-shadow-6" filterUnits="userSpaceOnUse"><feOffset dx="4.23" dy="4.23"/><feGaussianBlur result="blur-6" stdDeviation="4.23"/><feFlood flood-color="#000" flood-opacity=".15"/><feComposite in2="blur-6" operator="in"/><feComposite in="SourceGraphic"/></filter><filter id="drop-shadow-7" filterUnits="userSpaceOnUse"><feOffset dx="4.23" dy="4.23"/><feGaussianBlur result="blur-7" stdDeviation="4.23"/><feFlood flood-color="#000" flood-opacity=".15"/><feComposite in2="blur-7" operator="in"/><feComposite in="SourceGraphic"/></filter><linearGradient id="linear-gradient" x1="345.45" y1="90.88" x2="387.79" y2="136.63" gradientUnits="userSpaceOnUse"><stop offset=".4" stop-color="#727e92"/><stop offset=".91" stop-color="#727e92" stop-opacity="0"/></linearGradient><radialGradient id="radial-gradient" cx="341.96" cy="640.69" fx="341.96" fy="640.69" r="32.25" gradientTransform="translate(.99 -172.26) scale(1.01 .44)" gradientUnits="userSpaceOnUse"><stop offset=".4" stop-color="#727e92"/><stop offset="1" stop-color="#727e92" stop-opacity="0"/></radialGradient><radialGradient id="radial-gradient-2" cx="315.09" cy="117.6" fx="315.09" fy="117.6" r="58.9" gradientUnits="userSpaceOnUse"><stop offset="0" stop-color="#fff"/><stop offset=".21" stop-color="#f6f7fa"/><stop offset=".56" stop-color="#dfe4ee"/><stop offset=".98" stop-color="#b9c4db"/><stop offset=".99" stop-color="#b8c4db"/></radialGradient><radialGradient id="radial-gradient-3" cx="396.84" cy="93.74" fx="396.84" fy="93.74" r="89.55" gradientUnits="userSpaceOnUse"><stop offset="0" stop-color="#fff"/><stop offset=".21" stop-color="#f9fafc"/><stop offset=".47" stop-color="#eaeef4"/><stop offset=".76" stop-color="#d2d9e8"/><stop offset=".99" stop-color="#b8c4db"/></radialGradient><linearGradient id="linear-gradient-2" x1="379.23" y1="80.57" x2="357.45" y2="89.46" gradientUnits="userSpaceOnUse"><stop offset="0" stop-color="#fff"/><stop offset="1" stop-color="#fff" stop-opacity="0"/></linearGradient><linearGradient id="linear-gradient-3" x1="345.45" y1="161.57" x2="387.79" y2="207.32" xlink:href="#linear-gradient"/><radialGradient id="radial-gradient-4" cy="803.67" fy="803.67" r="32.25" xlink:href="#radial-gradient"/><radialGradient id="radial-gradient-5" cy="189.34" fy="189.34" r="58.9" xlink:href="#radial-gradient-2"/><radialGradient id="radial-gradient-6" cy="165.49" fy="165.49" r="114.99" xlink:href="#radial-gradient-3"/><linearGradient id="linear-gradient-4" x1="381.03" y1="151.57" x2="359.26" y2="160.47" xlink:href="#linear-gradient-2"/><linearGradient id="linear-gradient-5" x1="347" y1="235.53" x2="389.34" y2="281.28" xlink:href="#linear-gradient"/><radialGradient id="radial-gradient-7" cx="340.43" cy="972.75" fx="340.43" fy="972.75" r="32.25" xlink:href="#radial-gradient"/><radialGradient id="radial-gradient-8" cx="313.54" cy="263.77" fx="313.54" fy="263.77" r="58.9" xlink:href="#radial-gradient-2"/><radialGradient id="radial-gradient-9" cx="395.29" cy="239.92" fx="395.29" fy="239.92" r="114.99" xlink:href="#radial-gradient-3"/><linearGradient id="linear-gradient-6" x1="379.48" y1="226" x2="357.7" y2="234.9" xlink:href="#linear-gradient-2"/><linearGradient id="linear-gradient-7" x1="347.86" y1="317.35" x2="390.2" y2="363.1" xlink:href="#linear-gradient"/><radialGradient id="radial-gradient-10" cx="339.83" cy="1155.15" fx="339.83" fy="1155.15" r="32.25" xlink:href="#radial-gradient"/><radialGradient id="radial-gradient-11" cx="312.94" cy="344.06" fx="312.94" fy="344.06" r="58.9" xlink:href="#radial-gradient-2"/><radialGradient id="radial-gradient-12" cx="394.68" cy="320.21" fx="394.68" fy="320.21" r="100.72" xlink:href="#radial-gradient-3"/><linearGradient id="linear-gradient-8" x1="378.88" y1="306.29" x2="357.1" y2="315.19" xlink:href="#linear-gradient-2"/><linearGradient id="linear-gradient-9" x1="347.37" y1="393.47" x2="389.7" y2="439.22" xlink:href="#linear-gradient"/><radialGradient id="radial-gradient-13" cx="339.41" cy="1328.08" fx="339.41" fy="1328.08" r="32.25" xlink:href="#radial-gradient"/><radialGradient id="radial-gradient-14" cx="312.52" cy="420.18" fx="312.52" fy="420.18" r="58.9" xlink:href="#radial-gradient-2"/><radialGradient id="radial-gradient-15" cx="394.26" cy="396.33" fx="394.26" fy="396.33" r="100.72" xlink:href="#radial-gradient-3"/><linearGradient id="linear-gradient-10" x1="378.46" y1="382.42" x2="356.68" y2="391.31" xlink:href="#linear-gradient-2"/></defs><g class="cls-11"><g id="Layer_1"><path class="cls-15" d="m211.57,343.41l-.62-1.14c34.06-18.51,55.22-54.06,55.22-92.79,0-38.79-21.21-74.36-55.35-92.85l.62-1.14c34.56,18.72,56.03,54.73,56.03,94,0,39.21-21.42,75.2-55.9,93.93Z"/><path class="cls-15" d="m215.07,152.68l-.59-.58,2.62-2.63.59.58-2.62,2.63Zm5.23-5.27l-.59-.58,2.62-2.63.59.58-2.62,2.63Zm5.23-5.27l-.59-.58,2.62-2.63.59.58-2.62,2.63Zm5.23-5.27l-.59-.58,2.62-2.63.59.58-2.62,2.63Zm5.23-5.27l-.59-.58,2.62-2.63.59.58-2.62,2.63Zm5.23-5.27l-.59-.58,2.62-2.63.59.58-2.62,2.63Zm5.23-5.27l-.59-.58,2.62-2.63.59.58-2.62,2.63Zm5.23-5.27l-.59-.58,2.62-2.63.59.58-2.62,2.63Zm5.23-5.27l-.59-.58,2.62-2.63.59.58-2.62,2.63Zm5.23-5.27l-.59-.58,2.62-2.63.59.58-2.62,2.63Zm5.23-5.27l-.59-.58,2.62-2.63.59.58-2.62,2.63Zm68.66-3.66h-3.71v-.83h3.71v.83Zm-7.42,0h-3.71v-.83h3.71v.83Zm-7.42,0h-3.71v-.83h3.71v.83Zm-7.42,0h-3.71v-.83h3.71v.83Zm-7.42,0h-3.71v-.83h3.71v.83Zm-7.42,0h-3.71v-.83h3.71v.83Zm-7.42,0h-3.71v-.83h3.71v.83Zm-7.42,0h-3.71v-.83h3.71v.83Zm-7.42,0h-3.71v-.83h3.71v.83Z"/><path class="cls-23" d="m216.02,156.08c0,2.4-1.94,4.34-4.34,4.34s-4.34-1.94-4.34-4.34,1.94-4.34,4.34-4.34,4.34,1.94,4.34,4.34Z"/><path class="cls-15" d="m251.62,187.71l-.59-.57,2.58-2.67.59.57-2.58,2.67Zm5.17-5.33l-.59-.57,2.58-2.67.59.57-2.58,2.67Zm5.17-5.33l-.59-.57,2.58-2.67.59.57-2.58,2.67Zm75.72-4.07h-3.55v-.83h3.55v.83Zm-7.27,0h-3.71v-.83h3.71v.83Zm-7.42,0h-3.71v-.83h3.71v.83Zm-7.42,0h-3.71v-.83h3.71v.83Zm-7.42,0h-3.71v-.83h3.71v.83Zm-7.42,0h-3.71v-.83h3.71v.83Zm-7.42,0h-3.71v-.83h3.71v.83Zm-7.42,0h-3.71v-.83h3.71v.83Zm-7.42,0h-3.71v-.83h3.71v.83Zm-7.42,0h-3.71v-.83h3.71v.83Z"/><path class="cls-14" d="m253.27,190.35c0,2.4-1.94,4.34-4.34,4.34-2.4,0-4.34-1.95-4.34-4.34,0-2.4,1.94-4.34,4.34-4.34,2.4,0,4.34,1.94,4.34,4.34Z"/><path class="cls-15" d="m334.18,318.14h-3.71v-.83h3.71v.83Zm-7.42,0h-3.71v-.83h3.71v.83Zm-7.42,0h-3.71v-.83h3.71v.83Zm-7.42,0h-3.71v-.83h3.71v.83Zm-7.42,0h-3.71v-.83h3.71v.83Zm-7.42,0h-3.71v-.83h3.71v.83Zm-7.42,0h-3.71v-.83h3.71v.83Zm-7.42,0h-3.71v-.83h3.71v.83Zm-7.42,0h-3.71v-.83h3.71v.83Zm-7.42,0h-1.83l-1.53-1.64.6-.56,1.29,1.38h1.47v.83Zm-5.89-4.35l-2.54-2.71.6-.56,2.54,2.71-.6.56Zm-5.07-5.42l-2.54-2.71.6-.56,2.54,2.71-.6.56Z"/><path class="cls-13" d="m256.56,302.86c0-2.4-1.94-4.34-4.34-4.34-2.4,0-4.34,1.95-4.34,4.34,0,2.4,1.94,4.34,4.34,4.34,2.4,0,4.34-1.94,4.34-4.34Z"/><path class="cls-15" d="m336.67,403.43h-1.83v-.83h1.83v.83Zm-5.54,0h-3.71v-.83h3.71v.83Zm-7.42,0h-3.71v-.83h3.71v.83Zm-7.42,0h-3.71v-.83h3.71v.83Zm-7.42,0h-3.71v-.83h3.71v.83Zm-7.42,0h-3.71v-.83h3.71v.83Zm-7.42,0h-3.71v-.83h3.71v.83Zm-7.42,0h-3.71v-.83h3.71v.83Zm-7.42,0h-3.71v-.83h3.71v.83Zm-7.42,0h-1.04l-2.14-2.13.58-.58,1.89,1.89h.7v.83Zm-5.8-4.75l-2.63-2.62.58-.58,2.63,2.62-.58.58Zm-5.26-5.24l-2.63-2.62.58-.58,2.63,2.62-.58.58Zm-5.26-5.24l-2.63-2.62.58-.58,2.63,2.62-.58.58Zm-5.26-5.24l-2.63-2.62.58-.58,2.63,2.62-.58.58Zm-5.26-5.24l-2.63-2.62.58-.58,2.63,2.62-.58.58Zm-5.26-5.24l-2.63-2.62.58-.58,2.63,2.62-.58.58Zm-5.26-5.24l-2.63-2.62.58-.58,2.63,2.62-.58.58Zm-5.26-5.24l-2.63-2.62.58-.58,2.63,2.62-.58.58Zm-5.26-5.24l-2.63-2.62.58-.58,2.63,2.62-.58.58Zm-5.26-5.24l-2.63-2.62.58-.58,2.63,2.62-.58.58Zm-5.26-5.24l-2.63-2.62.58-.58,2.63,2.62-.58.58Z"/><path class="cls-24" d="m215.33,343.38c0-2.4-1.94-4.34-4.34-4.34s-4.34,1.94-4.34,4.34,1.94,4.34,4.34,4.34,4.34-1.94,4.34-4.34Z"/><path class="cls-15" d="m353.36,250.49h-3.71v-.83h3.71v.83Zm-7.42,0h-3.71v-.83h3.71v.83Zm-7.42,0h-3.71v-.83h3.71v.83Zm-7.42,0h-3.71v-.83h3.71v.83Zm-7.42,0h-3.71v-.83h3.71v.83Zm-7.42,0h-3.71v-.83h3.71v.83Zm-7.42,0h-3.71v-.83h3.71v.83Zm-7.42,0h-3.71v-.83h3.71v.83Zm-7.42,0h-3.71v-.83h3.71v.83Zm-7.42,0h-3.71v-.83h3.71v.83Zm-7.42,0h-3.71v-.83h3.71v.83Zm-7.42,0h-3.71v-.83h3.71v.83Z"/><path class="cls-21" d="m271.19,250.07c0-2.4-1.95-4.34-4.34-4.34-2.4,0-4.34,1.95-4.34,4.34,0,2.4,1.95,4.34,4.34,4.34,2.4,0,4.34-1.94,4.34-4.34Z"/><path class="cls-19" d="m353.56,77.41h118.55c12.18,0,22.05,9.87,22.05,22.05s-9.87,22.05-22.05,22.05h-118.55v-44.09Z"/><g class="cls-12"><path class="cls-14" d="m223.63,218.74c-.66-2-1.39-3.99-2.19-5.97-9.49-23.41-27.09-41.16-48.25-51.31l-39.69,93.82,90.13-36.54Z"/><path class="cls-21" d="m133.5,255.28l85.56,36.19c10.52-22.11,12.77-48.07,4.57-72.74l-90.13,36.54h0Z"/><path class="cls-23" d="m133.5,255.28l39.69-93.82c-23.9-11.47-52.34-13.26-78.79-2.61l39.1,96.43h0Z"/><path class="cls-24" d="m97.18,341.13c22.02,8.11,47.01,8.38,70.42-1.11.07-.03.14-.06.22-.09l-34.32-84.65-36.32,85.85Z"/><path class="cls-13" d="m133.5,255.28l34.32,84.65c23.42-9.56,41.14-27.23,51.24-48.46l-85.56-36.19Z"/></g><circle class="cls-25" cx="129.87" cy="249.29" r="87.65" transform="translate(-138.24 164.85) rotate(-45)"/><path class="cls-18" d="m353.56,149.65h118.55c12.18,0,22.05,9.87,22.05,22.05s-9.87,22.05-22.05,22.05h-118.55v-44.09Z"/><path class="cls-16" d="m353.56,224.07h118.55c12.18,0,22.05,9.87,22.05,22.05s-9.87,22.05-22.05,22.05h-118.55v-44.09Z"/><path class="cls-20" d="m353.56,304.37h118.55c12.18,0,22.05,9.87,22.05,22.05s-9.87,22.05-22.05,22.05h-118.55v-44.09Z"/><path class="cls-17" d="m353.56,380.49h118.55c12.18,0,22.05,9.87,22.05,22.05s-9.87,22.05-22.05,22.05h-118.55v-44.09Z"/><path class="cls-23" d="m347.53,124.98c-18.68,0-33.88-7.7-33.88-17.15s15.2-17.15,33.88-17.15,33.88,7.7,33.88,17.15-15.2,17.15-33.88,17.15Zm0-33.89c-18.45,0-33.46,7.51-33.46,16.73s15.01,16.73,33.46,16.73,33.46-7.51,33.46-16.73-15.01-16.73-33.46-16.73Z"/><polygon class="cls-3" points="331.32 121.06 394.47 143.85 421.45 127.57 376.31 104.09 331.32 121.06"/><path class="cls-8" d="m380.22,109.77c0,7.84-14.63,14.2-32.69,14.2s-32.69-6.36-32.69-14.2,14.63-14.2,32.69-14.2,32.69,6.36,32.69,14.2Z"/><path class="cls-35" d="m374.06,97.12c-5.47-4.77-15.3-7.95-26.53-7.95s-21.06,3.18-26.53,7.95l-4.57-3.75v12.43c0,9.19,13.92,16.64,31.09,16.64s31.1-7.45,31.1-16.64v-12.43l-4.57,3.75Z"/><path class="cls-32" d="m378.63,93.14c0,9.19-13.92,16.64-31.1,16.64s-31.09-7.45-31.09-16.64,13.92-16.64,31.09-16.64,31.1,7.45,31.1,16.64Z"/><path class="cls-23" d="m376.76,93.14c0,8.63-13.08,15.64-29.23,15.64s-29.22-7-29.22-15.64,13.08-15.64,29.22-15.64,29.23,7,29.23,15.64Z"/><path class="cls-38" d="m375.9,93.14c0,8.11-12.29,14.69-27.45,14.69s-27.45-6.58-27.45-14.69,12.29-14.69,27.45-14.69,27.45,6.58,27.45,14.69Z"/><polygon class="cls-7" points="331.32 191.75 394.47 214.54 421.45 198.26 376.31 174.78 331.32 191.75"/><path class="cls-14" d="m347.53,196.72c-18.68,0-33.88-7.7-33.88-17.15s15.2-17.15,33.88-17.15,33.88,7.69,33.88,17.15-15.2,17.15-33.88,17.15Zm0-33.88c-18.45,0-33.46,7.51-33.46,16.73s15.01,16.73,33.46,16.73,33.46-7.51,33.46-16.73-15.01-16.73-33.46-16.73Z"/><path class="cls-2" d="m380.22,181.52c0,7.84-14.63,14.2-32.69,14.2s-32.69-6.36-32.69-14.2,14.63-14.2,32.69-14.2,32.69,6.36,32.69,14.2Z"/><path class="cls-31" d="m374.06,168.87c-5.47-4.77-15.3-7.95-26.53-7.95s-21.06,3.18-26.53,7.95l-4.57-3.75v12.43c0,9.19,13.92,16.64,31.09,16.64s31.1-7.45,31.1-16.64v-12.43l-4.57,3.75Z"/><path class="cls-30" d="m378.63,164.88c0,9.19-13.92,16.64-31.1,16.64s-31.09-7.45-31.09-16.64,13.92-16.64,31.09-16.64,31.1,7.45,31.1,16.64Z"/><path class="cls-14" d="m376.76,164.88c0,8.64-13.08,15.64-29.23,15.64s-29.22-7-29.22-15.64,13.08-15.64,29.22-15.64,29.23,7,29.23,15.64Z"/><path class="cls-37" d="m375.9,164.88c0,8.11-12.29,14.69-27.45,14.69s-27.45-6.58-27.45-14.69,12.29-14.69,27.45-14.69,27.45,6.58,27.45,14.69Z"/><path class="cls-21" d="m345.98,271.15c-18.68,0-33.88-7.69-33.88-17.15s15.2-17.15,33.88-17.15,33.88,7.7,33.88,17.15-15.2,17.15-33.88,17.15Zm0-33.88c-18.45,0-33.46,7.51-33.46,16.73s15.01,16.73,33.46,16.73,33.46-7.5,33.46-16.73-15.01-16.73-33.46-16.73Z"/><polygon class="cls-5" points="332.87 265.7 396.03 288.49 423 272.21 377.86 248.74 332.87 265.7"/><path class="cls-1" d="m378.66,255.95c0,7.84-14.63,14.2-32.68,14.2s-32.69-6.36-32.69-14.2,14.63-14.2,32.69-14.2,32.68,6.36,32.68,14.2Z"/><path class="cls-34" d="m372.51,243.3c-5.47-4.77-15.3-7.95-26.53-7.95s-21.06,3.18-26.53,7.95l-4.57-3.75v12.43c0,9.19,13.92,16.64,31.1,16.64s31.09-7.45,31.09-16.64v-12.43l-4.57,3.75Z"/><path class="cls-33" d="m377.07,239.31c0,9.19-13.92,16.64-31.09,16.64s-31.1-7.45-31.1-16.64,13.92-16.64,31.1-16.64,31.09,7.45,31.09,16.64Z"/><path class="cls-21" d="m375.2,239.31c0,8.63-13.08,15.64-29.22,15.64s-29.22-7-29.22-15.64,13.08-15.64,29.22-15.64,29.22,7,29.22,15.64Z"/><path class="cls-39" d="m374.35,239.31c0,8.11-12.29,14.69-27.45,14.69s-27.45-6.58-27.45-14.69,12.29-14.69,27.45-14.69,27.45,6.58,27.45,14.69Z"/><polygon class="cls-4" points="333.73 347.52 396.88 370.31 423.85 354.03 378.72 330.56 333.73 347.52"/><path class="cls-13" d="m345.12,352.15c-18.68,0-33.88-7.7-33.88-17.15s15.2-17.15,33.88-17.15,33.88,7.69,33.88,17.15-15.2,17.15-33.88,17.15Zm0-33.88c-18.45,0-33.46,7.51-33.46,16.73s15.01,16.73,33.46,16.73,33.46-7.51,33.46-16.73-15.01-16.73-33.46-16.73Z"/><path class="cls-10" d="m378.06,336.24c0,7.84-14.63,14.2-32.69,14.2s-32.69-6.36-32.69-14.2,14.63-14.2,32.69-14.2,32.69,6.36,32.69,14.2Z"/><path class="cls-26" d="m371.9,323.59c-5.47-4.77-15.3-7.95-26.53-7.95s-21.06,3.18-26.53,7.95l-4.57-3.75v12.43c0,9.19,13.92,16.63,31.09,16.63s31.1-7.45,31.1-16.63v-12.43l-4.57,3.75Z"/><path class="cls-28" d="m376.47,319.6c0,9.19-13.92,16.63-31.1,16.63s-31.09-7.45-31.09-16.63,13.92-16.64,31.09-16.64,31.1,7.45,31.1,16.64Z"/><path class="cls-13" d="m374.6,319.6c0,8.63-13.08,15.64-29.22,15.64s-29.22-7-29.22-15.64,13.08-15.64,29.22-15.64,29.22,7,29.22,15.64Z"/><ellipse class="cls-36" cx="346.29" cy="319.6" rx="27.45" ry="14.69"/><polygon class="cls-6" points="333.24 423.64 396.39 446.44 423.36 430.15 378.23 406.68 333.24 423.64"/><path class="cls-24" d="m345.61,428.27c-18.68,0-33.88-7.7-33.88-17.15s15.2-17.15,33.88-17.15,33.88,7.69,33.88,17.15-15.2,17.15-33.88,17.15Zm0-33.88c-18.45,0-33.46,7.5-33.46,16.73s15.01,16.73,33.46,16.73,33.46-7.51,33.46-16.73-15.01-16.73-33.46-16.73Z"/><path class="cls-9" d="m377.64,412.36c0,7.84-14.63,14.2-32.69,14.2s-32.69-6.36-32.69-14.2,14.63-14.2,32.69-14.2,32.69,6.36,32.69,14.2Z"/><path class="cls-29" d="m371.48,399.71c-5.47-4.77-15.3-7.95-26.53-7.95s-21.06,3.18-26.53,7.95l-4.57-3.75v12.43c0,9.19,13.92,16.63,31.09,16.63s31.09-7.45,31.09-16.63v-12.43l-4.57,3.75Z"/><path class="cls-27" d="m376.05,395.72c0,9.19-13.92,16.64-31.09,16.64s-31.09-7.45-31.09-16.64,13.92-16.64,31.09-16.64,31.09,7.45,31.09,16.64Z"/><path class="cls-24" d="m374.18,395.72c0,8.63-13.08,15.64-29.23,15.64s-29.22-7-29.22-15.64,13.08-15.63,29.22-15.63,29.23,7,29.23,15.63Z"/><path class="cls-40" d="m373.33,395.72c0,8.11-12.29,14.69-27.45,14.69s-27.45-6.58-27.45-14.69,12.29-14.69,27.45-14.69,27.45,6.58,27.45,14.69Z"/><path class="cls-22" d="m94.47,206.38h-5.57v-8.62h15.72v39.12h-10.15v-30.5Z"/><path class="cls-22" d="m141.51,236.88h-31.38l9.91-10.38c3.52-3.7,6.16-6.92,8.04-9.91,1.06-1.64,2.11-3.58,2.11-6.1,0-.41,0-2.46-1.17-3.75-.59-.65-1.58-1.17-2.87-1.17-1.64,0-2.76.76-3.4,1.58-.94,1.23-1.35,3.46-1.41,4.81h-10.5c.06-5.1,2.29-8.8,4.34-10.85,2.64-2.64,6.22-4.22,11.09-4.22,5.87,0,9.27,2.29,11.03,4.05,1.58,1.58,3.81,4.57,3.81,9.62s-2.29,8.33-5.81,11.61l-6.57,6.1h12.79v8.62Z"/><path class="cls-22" d="m172.83,206.38h-13.55l-.7,4.34c1.47-.23,2.64-.29,3.17-.29,5.22,0,8.5,1.99,10.32,3.87,1.76,1.76,3.58,4.75,3.58,9.27s-1.88,7.86-3.75,9.79c-3.64,3.75-8.45,4.4-12.2,4.4-5.92,0-10.03-1.52-13.2-3.52l1.52-9.5c2.05,1.88,4.05,2.87,4.69,3.17,1.76.82,3.93,1.35,5.87,1.35,2.05,0,3.93-.7,5.1-1.94.88-.94,1.52-2.35,1.52-3.99,0-2.05-1-3.46-1.88-4.22-2.11-1.88-5.75-1.94-7.04-1.94-2.76,0-5.1.59-7.21,1.64l3.4-21.06h20.35v8.62Z"/><path class="cls-22" d="m96.27,259.4l2.63-13.46,4.35,9.72,4.39-9.72,2.36,13.46h-1.95l-1.28-7.54-3.64,8.13-3.6-8.14-1.31,7.56h-1.95Z"/><path class="cls-22" d="m114.55,246.88v12.52h-1.91v-12.52h1.91Z"/><path class="cls-22" d="m119.47,246.88v10.72h3.68v1.8h-5.59v-12.52h1.91Z"/><path class="cls-22" d="m126.86,246.88v10.72h3.68v1.8h-5.59v-12.52h1.91Z"/><path class="cls-22" d="m134.26,246.88v12.52h-1.91v-12.52h1.91Z"/><path class="cls-22" d="m149.69,253.15c0,3.68-2.76,6.49-6.51,6.49s-6.51-2.82-6.51-6.49,2.76-6.49,6.51-6.49,6.51,2.82,6.51,6.49Zm-1.91,0c0-2.78-1.91-4.73-4.6-4.73s-4.6,1.95-4.6,4.73,1.91,4.73,4.6,4.73,4.6-1.95,4.6-4.73Z"/><path class="cls-22" d="m152.09,259.4v-13.36l9.08,9.52v-8.67h1.91v13.29l-9.08-9.51v8.75h-1.91Z"/><path class="cls-22" d="m92.05,278.9h-5.35l-1.37,3.02h-2.06l6.23-13.25,5.93,13.25h-2.06l-1.31-3.02Zm-.77-1.8l-1.86-4.24-1.93,4.24h3.79Z"/><path class="cls-22" d="m106,272.33c-1.39-1.26-2.68-1.39-3.4-1.39-2.72,0-4.56,2.01-4.56,4.77s1.91,4.69,4.58,4.69c1.5,0,2.66-.77,3.38-1.45v2.27c-1.26.75-2.57.94-3.43.94-2.27,0-3.7-1.03-4.43-1.73-1.46-1.37-2.01-2.97-2.01-4.73,0-2.31.96-3.9,2.01-4.9,1.29-1.22,2.8-1.63,4.52-1.63,1.14,0,2.25.21,3.34.9v2.25Z"/><path class="cls-22" d="m117.24,272.33c-1.39-1.26-2.68-1.39-3.4-1.39-2.72,0-4.56,2.01-4.56,4.77s1.91,4.69,4.58,4.69c1.5,0,2.66-.77,3.38-1.45v2.27c-1.26.75-2.57.94-3.43.94-2.27,0-3.7-1.03-4.43-1.73-1.46-1.37-2.01-2.97-2.01-4.73,0-2.31.96-3.9,2.01-4.9,1.29-1.22,2.8-1.63,4.52-1.63,1.14,0,2.25.21,3.34.9v2.25Z"/><path class="cls-22" d="m131.64,275.67c0,3.68-2.76,6.49-6.51,6.49s-6.51-2.82-6.51-6.49,2.76-6.49,6.51-6.49,6.51,2.82,6.51,6.49Zm-1.91,0c0-2.78-1.91-4.73-4.6-4.73s-4.6,1.95-4.6,4.73,1.91,4.73,4.6,4.73,4.6-1.95,4.6-4.73Z"/><path class="cls-22" d="m135.96,269.4v7.54c0,.68.02,1.5.39,2.16.38.64,1.22,1.29,2.33,1.29s1.95-.66,2.33-1.29c.38-.66.39-1.48.39-2.16v-7.54h1.91v8.05c0,.99-.21,2.2-1.16,3.25-.66.71-1.76,1.46-3.47,1.46s-2.82-.75-3.47-1.46c-.96-1.05-1.16-2.25-1.16-3.25v-8.05h1.91Z"/><path class="cls-22" d="m146.32,281.92v-13.36l9.08,9.51v-8.67h1.91v13.29l-9.08-9.51v8.75h-1.91Z"/><path class="cls-22" d="m163.79,271.21v10.72h-1.91v-10.72h-2.87v-1.8h7.66v1.8h-2.87Z"/><path class="cls-22" d="m173.76,272.18c-.11-.28-.28-.54-.56-.79-.39-.32-.81-.45-1.35-.45-1.16,0-1.76.69-1.76,1.5,0,.38.13,1.03,1.35,1.52l1.26.51c2.31.94,2.95,2.25,2.95,3.68,0,2.38-1.69,4.02-4.04,4.02-1.45,0-2.31-.54-2.95-1.26-.68-.75-.98-1.58-1.05-2.44l1.9-.41c0,.62.23,1.2.53,1.6.36.45.88.75,1.63.75,1.16,0,2.06-.84,2.06-2.1s-.98-1.8-1.8-2.14l-1.2-.51c-1.03-.43-2.55-1.29-2.55-3.17,0-1.69,1.31-3.3,3.66-3.3,1.35,0,2.12.51,2.51.84.34.3.69.73.96,1.26l-1.54.9Z"/><path class="cls-22" d="m95.23,291.93c1.52,0,2.5.19,3.3.73,1.37.92,1.48,2.4,1.48,2.95,0,1.8-1.11,3.12-2.78,3.49l3.9,5.35h-2.31l-3.58-5.12h-.34v5.12h-1.91v-12.52h2.23Zm-.32,5.74h.6c.53,0,2.66-.06,2.66-2.05,0-1.76-1.67-1.93-2.61-1.93h-.66v3.98Z"/><path class="cls-22" d="m109.92,293.73h-4.99v3.17h4.84v1.8h-4.84v3.94h4.99v1.8h-6.91v-12.52h6.91v1.8Z"/><path class="cls-22" d="m119.76,301.42h-5.35l-1.37,3.02h-2.06l6.23-13.25,5.93,13.25h-2.06l-1.31-3.02Zm-.77-1.8l-1.86-4.24-1.93,4.24h3.79Z"/><path class="cls-22" d="m133.7,294.86c-1.39-1.26-2.68-1.39-3.4-1.39-2.72,0-4.56,2.01-4.56,4.77s1.91,4.69,4.58,4.69c1.5,0,2.66-.77,3.38-1.45v2.27c-1.26.75-2.57.94-3.43.94-2.27,0-3.7-1.03-4.43-1.73-1.46-1.37-2.01-2.97-2.01-4.73,0-2.31.96-3.9,2.01-4.9,1.3-1.22,2.8-1.63,4.52-1.63,1.14,0,2.25.21,3.34.9v2.25Z"/><path class="cls-22" d="m137.98,296.88h5.37v-4.95h1.91v12.52h-1.91v-5.76h-5.37v5.76h-1.91v-12.52h1.91v4.95Z"/><path class="cls-22" d="m155.18,293.73h-4.99v3.17h4.84v1.8h-4.84v3.94h4.99v1.8h-6.91v-12.52h6.91v1.8Z"/><path class="cls-22" d="m160.28,291.93c1.75,0,3.27.19,4.65,1.22,1.52,1.14,2.4,2.97,2.4,5.05s-.86,3.88-2.51,5.05c-1.46,1.03-2.83,1.2-4.58,1.2h-2.59v-12.52h2.63Zm-.71,10.72h.83c.94,0,2.23-.08,3.32-.88.86-.66,1.71-1.86,1.71-3.57s-.79-2.95-1.69-3.6c-1.09-.79-2.42-.86-3.34-.86h-.83v8.91Z"/><path class="cls-22" d="m420.93,97.55c-.93-.84-1.79-.93-2.27-.93-1.82,0-3.05,1.34-3.05,3.19s1.28,3.14,3.06,3.14c1,0,1.78-.51,2.26-.97v1.52c-.84.5-1.72.63-2.29.63-1.52,0-2.47-.69-2.96-1.15-.98-.92-1.34-1.98-1.34-3.16,0-1.54.64-2.61,1.34-3.27.87-.82,1.87-1.09,3.02-1.09.76,0,1.5.14,2.23.6v1.5Z"/><path class="cls-22" d="m423.08,102.6c.41,0,.75.34.75.75s-.34.75-.75.75-.75-.34-.75-.75.34-.75.75-.75Z"/><path class="cls-22" d="m427.16,95.59c1.02,0,1.67.13,2.21.49.92.61.99,1.61.99,1.97,0,1.2-.74,2.08-1.86,2.33l2.61,3.57h-1.54l-2.4-3.42h-.23v3.42h-1.28v-8.36h1.49Zm-.21,3.84h.4c.35,0,1.78-.04,1.78-1.37,0-1.18-1.12-1.29-1.74-1.29h-.44v2.66Z"/><path class="cls-22" d="m432.94,102.6c.41,0,.75.34.75.75s-.34.75-.75.75-.75-.34-.75-.75.34-.75.75-.75Z"/><path class="cls-22" d="m436.8,95.59v8.36h-1.28v-8.36h1.28Z"/><path class="cls-22" d="m439.39,102.6c.41,0,.75.34.75.75s-.34.75-.75.75-.75-.34-.75-.75.34-.75.75-.75Z"/><path class="cls-22" d="m445.58,97.45c-.08-.19-.19-.36-.38-.53-.26-.21-.54-.3-.9-.3-.78,0-1.18.46-1.18,1,0,.25.09.69.9,1.02l.84.34c1.54.63,1.97,1.5,1.97,2.46,0,1.59-1.13,2.68-2.7,2.68-.97,0-1.54-.36-1.97-.84-.45-.5-.65-1.05-.7-1.63l1.27-.28c0,.41.15.8.35,1.07.24.3.59.5,1.09.5.78,0,1.38-.56,1.38-1.4s-.65-1.2-1.2-1.43l-.8-.34c-.69-.29-1.71-.87-1.71-2.12,0-1.13.88-2.21,2.45-2.21.9,0,1.42.34,1.68.56.23.2.46.49.64.84l-1.03.6Z"/><path class="cls-22" d="m395.51,169.69c-.08-.19-.19-.36-.38-.53-.26-.21-.54-.3-.9-.3-.78,0-1.18.46-1.18,1,0,.25.09.69.9,1.02l.84.34c1.54.63,1.97,1.5,1.97,2.46,0,1.59-1.13,2.68-2.7,2.68-.97,0-1.54-.36-1.97-.84-.45-.5-.65-1.05-.7-1.63l1.27-.28c0,.41.15.8.35,1.07.24.3.59.5,1.09.5.78,0,1.38-.56,1.38-1.4s-.65-1.2-1.2-1.43l-.8-.34c-.69-.29-1.71-.87-1.71-2.12,0-1.13.88-2.21,2.45-2.21.9,0,1.42.34,1.68.56.23.2.46.49.64.84l-1.03.6Z"/><path class="cls-22" d="m399.64,171.15h3.59v-3.31h1.28v8.36h-1.28v-3.85h-3.59v3.85h-1.28v-8.36h1.28v3.31Z"/><path class="cls-22" d="m411.43,174.18h-3.57l-.92,2.02h-1.38l4.16-8.85,3.96,8.85h-1.38l-.88-2.02Zm-.51-1.2l-1.24-2.83-1.29,2.83h2.53Z"/><path class="cls-22" d="m416.02,171.17l3.24-3.34h1.68l-3.77,3.79,3.8,4.58h-1.71l-2.98-3.71-.25.25v3.46h-1.28v-8.36h1.28v3.34Z"/><path class="cls-22" d="m427,174.18h-3.57l-.92,2.02h-1.38l4.16-8.85,3.96,8.85h-1.38l-.88-2.02Zm-.51-1.2l-1.24-2.83-1.29,2.83h2.53Z"/><path class="cls-22" d="m434.51,167.83v8.36h-1.28v-8.36h1.28Z"/><path class="cls-22" d="m437.8,167.83v7.16h2.46v1.2h-3.74v-8.36h1.28Z"/><path class="cls-22" d="m446.08,169.04h-3.34v2.12h3.24v1.2h-3.24v2.63h3.34v1.2h-4.61v-8.36h4.61v1.2Z"/><path class="cls-22" d="m447.48,176.2l1.76-8.99,2.91,6.5,2.93-6.5,1.58,8.99h-1.3l-.85-5.04-2.43,5.43-2.41-5.44-.88,5.05h-1.3Z"/><path class="cls-22" d="m459.68,167.83c1.08,0,1.76.14,2.31.65.45.43.66.97.66,1.66,0,.33-.05.66-.25.99-.19.33-.44.49-.63.58.15.04.66.18,1.08.6.45.48.55,1.05.55,1.57,0,.6-.15,1.08-.55,1.5-.66.7-1.71.82-2.35.82h-2.09v-8.36h1.27Zm.01,3.6h.39c.31,0,.74-.04,1.04-.33.29-.28.33-.66.33-.95,0-.25-.04-.55-.3-.8-.29-.28-.65-.31-1.02-.31h-.44v2.4Zm0,3.56h.78c.36,0,.94-.06,1.27-.33.25-.2.41-.55.41-.93,0-.34-.13-.66-.34-.88-.35-.34-.87-.38-1.32-.38h-.8v2.51Z"/><path class="cls-22" d="m469.62,169.04h-3.34v2.12h3.24v1.2h-3.24v2.63h3.34v1.2h-4.61v-8.36h4.61v1.2Z"/><path class="cls-22" d="m392.47,243.47v7.16h-1.28v-7.16h-1.92v-1.2h5.12v1.2h-1.92Z"/><path class="cls-22" d="m396.8,245.57h3.59v-3.31h1.28v8.36h-1.28v-3.85h-3.59v3.85h-1.28v-8.36h1.28v3.31Z"/><path class="cls-22" d="m408.28,243.47h-3.34v2.12h3.24v1.2h-3.24v2.63h3.34v1.2h-4.61v-8.36h4.61v1.2Z"/><path class="cls-22" d="m409.69,250.63l1.76-8.99,2.91,6.5,2.93-6.5,1.58,8.99h-1.3l-.85-5.04-2.43,5.43-2.41-5.44-.88,5.05h-1.3Z"/><path class="cls-22" d="m421.89,242.26c1.08,0,1.76.14,2.31.65.45.43.66.97.66,1.66,0,.33-.05.66-.25.99-.19.33-.44.49-.63.58.15.04.66.18,1.08.6.45.48.55,1.05.55,1.57,0,.6-.15,1.08-.55,1.5-.66.7-1.71.82-2.35.82h-2.09v-8.36h1.27Zm.01,3.6h.39c.31,0,.74-.04,1.04-.33.29-.28.33-.66.33-.95,0-.25-.04-.55-.3-.8-.29-.28-.65-.31-1.02-.31h-.44v2.4Zm0,3.56h.78c.36,0,.94-.06,1.27-.33.25-.2.41-.55.41-.93,0-.34-.13-.66-.34-.88-.35-.34-.87-.38-1.32-.38h-.8v2.51Z"/><path class="cls-22" d="m432.13,248.61h-3.57l-.92,2.02h-1.38l4.16-8.85,3.96,8.85h-1.38l-.88-2.02Zm-.51-1.2l-1.24-2.83-1.29,2.83h2.53Z"/><path class="cls-22" d="m439.63,242.26c1.08,0,1.76.14,2.31.65.45.43.66.97.66,1.66,0,.33-.05.66-.25.99-.19.33-.44.49-.63.58.15.04.66.18,1.08.6.45.48.55,1.05.55,1.57,0,.6-.15,1.08-.55,1.5-.66.7-1.71.82-2.35.82h-2.09v-8.36h1.27Zm.01,3.6h.39c.31,0,.74-.04,1.04-.33.29-.28.33-.66.33-.95,0-.25-.04-.55-.3-.8-.29-.28-.65-.31-1.02-.31h-.44v2.4Zm0,3.56h.78c.36,0,.94-.06,1.27-.33.25-.2.41-.55.41-.93,0-.34-.13-.66-.34-.88-.35-.34-.87-.38-1.32-.38h-.8v2.51Z"/><path class="cls-22" d="m446.45,242.26c1.02,0,1.67.13,2.21.49.92.61.99,1.61.99,1.97,0,1.2-.74,2.08-1.86,2.33l2.61,3.57h-1.54l-2.4-3.42h-.23v3.42h-1.28v-8.36h1.49Zm-.21,3.84h.4c.35,0,1.78-.04,1.78-1.37,0-1.18-1.12-1.29-1.74-1.29h-.44v2.66Z"/><path class="cls-22" d="m459.96,246.45c0,2.46-1.84,4.34-4.35,4.34s-4.35-1.88-4.35-4.34,1.84-4.34,4.35-4.34,4.35,1.88,4.35,4.34Zm-1.28,0c0-1.86-1.28-3.16-3.07-3.16s-3.07,1.3-3.07,3.16,1.28,3.16,3.07,3.16,3.07-1.3,3.07-3.16Z"/><path class="cls-22" d="m463.05,247.02l-2.75-4.75h1.45l1.93,3.35,1.93-3.35h1.45l-2.75,4.75v3.61h-1.28v-3.61Z"/><path class="cls-22" d="m469.36,242.26v7.16h2.46v1.2h-3.74v-8.36h1.28Z"/><path class="cls-22" d="m393.71,330.92l1.76-8.99,2.91,6.5,2.93-6.5,1.58,8.99h-1.3l-.85-5.04-2.43,5.43-2.41-5.44-.88,5.05h-1.3Z"/><path class="cls-22" d="m405.92,322.56v5.04c0,.45.01,1,.26,1.44.25.43.82.87,1.55.87s1.3-.44,1.55-.87c.25-.44.26-.99.26-1.44v-5.04h1.28v5.38c0,.66-.14,1.47-.78,2.17-.44.48-1.18.98-2.32.98s-1.88-.5-2.32-.98c-.64-.7-.78-1.5-.78-2.17v-5.38h1.28Z"/><path class="cls-22" d="m414.12,322.56v7.16h2.46v1.2h-3.74v-8.36h1.28Z"/><path class="cls-22" d="m419.72,323.76v7.16h-1.28v-7.16h-1.92v-1.2h5.12v1.2h-1.92Z"/><path class="cls-22" d="m424.05,322.56v8.36h-1.28v-8.36h1.28Z"/><path class="cls-22" d="m432.25,324.51c-.93-.84-1.79-.93-2.27-.93-1.82,0-3.05,1.34-3.05,3.19s1.28,3.14,3.06,3.14c1,0,1.78-.51,2.26-.97v1.52c-.84.5-1.72.63-2.29.63-1.52,0-2.47-.69-2.96-1.15-.98-.92-1.34-1.98-1.34-3.16,0-1.54.64-2.61,1.34-3.27.87-.82,1.87-1.09,3.02-1.09.76,0,1.5.14,2.23.6v1.5Z"/><path class="cls-22" d="m435.11,325.87h3.59v-3.31h1.28v8.36h-1.28v-3.85h-3.59v3.85h-1.28v-8.36h1.28v3.31Z"/><path class="cls-22" d="m450.28,326.74c0,2.46-1.84,4.34-4.35,4.34s-4.35-1.88-4.35-4.34,1.84-4.34,4.35-4.34,4.35,1.88,4.35,4.34Zm-1.28,0c0-1.86-1.28-3.16-3.07-3.16s-3.07,1.3-3.07,3.16,1.28,3.16,3.07,3.16,3.07-1.3,3.07-3.16Z"/><path class="cls-22" d="m453.17,322.56v8.36h-1.28v-8.36h1.28Z"/><path class="cls-22" d="m461.37,324.51c-.93-.84-1.79-.93-2.27-.93-1.82,0-3.05,1.34-3.05,3.19s1.28,3.14,3.06,3.14c1,0,1.78-.51,2.26-.97v1.52c-.84.5-1.72.63-2.29.63-1.52,0-2.47-.69-2.96-1.15-.98-.92-1.34-1.98-1.34-3.16,0-1.54.64-2.61,1.34-3.27.87-.82,1.87-1.09,3.02-1.09.76,0,1.5.14,2.23.6v1.5Z"/><path class="cls-22" d="m467.56,323.76h-3.34v2.12h3.24v1.2h-3.24v2.63h3.34v1.2h-4.61v-8.36h4.61v1.2Z"/><path class="cls-22" d="m421.68,398.68c1.17,0,2.18.13,3.11.82,1.02.76,1.61,1.98,1.61,3.37s-.58,2.6-1.68,3.37c-.98.69-1.89.8-3.06.8h-1.73v-8.36h1.76Zm-.48,7.16h.55c.63,0,1.49-.05,2.22-.59.58-.44,1.14-1.24,1.14-2.38s-.53-1.97-1.13-2.41c-.73-.53-1.62-.58-2.23-.58h-.55v5.96Z"/><path class="cls-22" d="m431.61,400.53c-.08-.19-.19-.36-.38-.53-.26-.21-.54-.3-.9-.3-.78,0-1.18.46-1.18,1,0,.25.09.69.9,1.02l.84.34c1.54.63,1.97,1.5,1.97,2.46,0,1.59-1.13,2.68-2.7,2.68-.97,0-1.54-.36-1.97-.84-.45-.5-.65-1.05-.7-1.63l1.27-.28c0,.41.15.8.35,1.07.24.3.59.5,1.09.5.78,0,1.38-.56,1.38-1.4s-.65-1.2-1.2-1.43l-.8-.34c-.69-.29-1.71-.87-1.71-2.12,0-1.13.88-2.21,2.45-2.21.9,0,1.42.34,1.68.56.23.2.46.49.64.84l-1.03.6Z"/><path class="cls-22" d="m435.51,402.89v4.15h-1.23v-4.15h-.51v-1.13h.51v-1.93h1.23v1.93h.94v1.13h-.94Z"/><path class="cls-22" d="m438.08,401.76l1.35,3.01,1.35-3.01h1.38l-2.73,5.66-2.73-5.66h1.38Z"/></g></g></svg>