<?xml version="1.0" encoding="utf-8"?>
<!-- Generator: Adobe Illustrator 27.7.0, SVG Export Plug-In . SVG Version: 6.00 Build 0)  -->
<svg version="1.1" id="Layer_1" xmlns="http://www.w3.org/2000/svg" xmlns:xlink="http://www.w3.org/1999/xlink" x="0px" y="0px"
	 viewBox="0 0 500 250" style="enable-background:new 0 0 500 250;" xml:space="preserve">
<style type="text/css">
	.st0{fill:none;stroke:#B2B2B2;stroke-width:3.2508;stroke-miterlimit:10;}
	.st1{fill:none;stroke:#B2B2B2;stroke-width:1.3356;stroke-miterlimit:10;}
	.st2{fill:#FFFFFF;}
	.st3{fill:#00ADEE;}
	.st4{fill:#2E3191;}
	.st5{fill:#BE1E2D;}
</style>
<g>
	<line class="st0" x1="65.3" y1="191.6" x2="435.8" y2="191.6"/>
	<g>
		<line class="st1" x1="87.3" y1="15.2" x2="435.8" y2="15.2"/>
		<line class="st1" x1="87.3" y1="41.2" x2="435.8" y2="41.2"/>
		<line class="st1" x1="87.3" y1="69.7" x2="435.8" y2="69.7"/>
		<line class="st1" x1="87.3" y1="95.7" x2="435.8" y2="95.7"/>
		<line class="st1" x1="87.3" y1="121.7" x2="435.8" y2="121.7"/>
		<line class="st1" x1="87.3" y1="150.2" x2="435.8" y2="150.2"/>
		<line class="st1" x1="87.3" y1="176.2" x2="435.8" y2="176.2"/>
	</g>
	<g>
		<g>
			<g>
				<g>
					<path class="st2" d="M67.1,13.2L67.1,13.2l-0.9,0.5l-0.1-0.5l1.1-0.6h0.6v5.2h-0.7V13.2z"/>
					<path class="st2" d="M73.2,15c0,1.8-0.7,2.7-1.8,2.7c-1,0-1.7-0.9-1.7-2.7c0-1.7,0.7-2.7,1.8-2.7C72.5,12.4,73.2,13.4,73.2,15z
						 M70.3,15.1c0,1.3,0.4,2.1,1.1,2.1c0.7,0,1.1-0.8,1.1-2.2c0-1.3-0.3-2.1-1.1-2.1C70.8,13,70.3,13.7,70.3,15.1z"/>
					<path class="st2" d="M74.1,12.4c0.3-0.1,0.8-0.1,1.3-0.1c0.7,0,1.1,0.1,1.5,0.4c0.3,0.2,0.4,0.5,0.4,0.9c0,0.5-0.3,1-0.9,1.2v0
						c0.5,0.1,1.1,0.6,1.1,1.3c0,0.5-0.2,0.8-0.5,1.1c-0.4,0.3-1,0.5-1.9,0.5c-0.5,0-0.8,0-1.1-0.1V12.4z M74.7,14.6h0.6
						c0.7,0,1.2-0.4,1.2-0.9c0-0.6-0.5-0.9-1.2-0.9c-0.3,0-0.5,0-0.6,0V14.6z M74.7,17.2c0.1,0,0.3,0,0.6,0c0.7,0,1.4-0.3,1.4-1
						c0-0.7-0.6-1-1.4-1h-0.6V17.2z"/>
				</g>
			</g>
			<g>
				<g>
					<path class="st2" d="M67.1,94.2L67.1,94.2l-0.9,0.5l-0.1-0.5l1.1-0.6h0.6v5.2h-0.7V94.2z"/>
					<path class="st2" d="M73.2,96.1c0,1.8-0.7,2.7-1.8,2.7c-1,0-1.7-0.9-1.7-2.7c0-1.7,0.7-2.7,1.8-2.7
						C72.5,93.5,73.2,94.4,73.2,96.1z M70.3,96.2c0,1.3,0.4,2.1,1.1,2.1c0.7,0,1.1-0.8,1.1-2.2c0-1.3-0.3-2.1-1.1-2.1
						C70.8,94,70.3,94.7,70.3,96.2z"/>
					<path class="st2" d="M77.2,96.1c0,1.8-0.7,2.7-1.8,2.7c-1,0-1.7-0.9-1.7-2.7c0-1.7,0.7-2.7,1.8-2.7
						C76.6,93.5,77.2,94.4,77.2,96.1z M74.4,96.2c0,1.3,0.4,2.1,1.1,2.1c0.7,0,1.1-0.8,1.1-2.2c0-1.3-0.3-2.1-1.1-2.1
						C74.9,94,74.4,94.7,74.4,96.2z"/>
					<path class="st2" d="M78.1,93.4h0.7v2.6h0c0.1-0.2,0.3-0.4,0.4-0.6l1.6-2h0.9l-1.9,2.3l2.1,3.1h-0.8l-1.8-2.6l-0.5,0.6v2h-0.7
						V93.4z"/>
				</g>
			</g>
			<g>
				<g>
					<path class="st2" d="M67.1,175.3L67.1,175.3l-0.9,0.5l-0.1-0.5l1.1-0.6h0.6v5.2h-0.7V175.3z"/>
				</g>
			</g>
		</g>
	</g>
	<rect x="101.9" y="32.9" class="st3" width="7.9" height="158.8"/>
	<rect x="123" y="86.8" class="st4" width="7.9" height="104.8"/>
	<rect x="188.2" y="41.2" class="st4" width="7.9" height="150.4"/>
	<rect x="253.5" y="64.7" class="st4" width="7.9" height="127"/>
	<rect x="318.7" y="66.2" class="st4" width="7.9" height="125.4"/>
	<rect x="383.1" y="93.6" class="st4" width="7.9" height="98"/>
	<g>
		<path class="st2" d="M247.4,222.4h-2.8v7.6h-0.7v-7.6h-2.8v-0.6h6.3V222.4z"/>
		<path class="st2" d="M249.7,228.6l0.1,0.5l0.1-0.6l1.5-4.7h0.6l1.5,4.6l0.2,0.6l0.1-0.6l1.3-4.7h0.7l-1.8,6.1h-0.6l-1.6-4.8
			l-0.1-0.3l-0.1,0.3L250,230h-0.6l-1.8-6.1h0.7L249.7,228.6z"/>
		<path class="st2" d="M256.9,222.1c0-0.1,0-0.2,0.1-0.3c0.1-0.1,0.2-0.1,0.3-0.1c0.1,0,0.3,0,0.3,0.1c0.1,0.1,0.1,0.2,0.1,0.3
			c0,0.1,0,0.2-0.1,0.3c-0.1,0.1-0.2,0.1-0.3,0.1c-0.1,0-0.3,0-0.3-0.1C256.9,222.4,256.9,222.3,256.9,222.1z M257.7,230H257v-6.1
			h0.7V230z"/>
		<path class="st2" d="M260.6,222.3v1.6h1.3v0.6h-1.3v4.1c0,0.3,0.1,0.6,0.2,0.8c0.1,0.2,0.3,0.2,0.6,0.2c0.1,0,0.3,0,0.5-0.1l0,0.5
			c-0.2,0.1-0.4,0.1-0.7,0.1c-0.5,0-0.8-0.1-1-0.4c-0.2-0.3-0.3-0.7-0.3-1.2v-4.1h-1.1v-0.6h1.1v-1.6H260.6z"/>
		<path class="st2" d="M264.3,222.3v1.6h1.3v0.6h-1.3v4.1c0,0.3,0.1,0.6,0.2,0.8c0.1,0.2,0.3,0.2,0.6,0.2c0.1,0,0.3,0,0.5-0.1l0,0.5
			c-0.2,0.1-0.4,0.1-0.7,0.1c-0.5,0-0.8-0.1-1-0.4c-0.2-0.3-0.3-0.7-0.3-1.2v-4.1h-1.1v-0.6h1.1v-1.6H264.3z"/>
		<path class="st2" d="M269.3,230.1c-0.5,0-1-0.1-1.4-0.4c-0.4-0.3-0.7-0.6-1-1.1c-0.2-0.5-0.3-1-0.3-1.5v-0.2
			c0-0.6,0.1-1.1,0.3-1.6c0.2-0.5,0.5-0.8,1-1.1c0.4-0.3,0.8-0.4,1.3-0.4c0.7,0,1.3,0.3,1.8,0.8c0.4,0.5,0.7,1.2,0.7,2.1v0.4h-4.4
			v0.1c0,0.7,0.2,1.3,0.6,1.7c0.4,0.5,0.9,0.7,1.5,0.7c0.4,0,0.7-0.1,1-0.2c0.3-0.1,0.5-0.3,0.8-0.6l0.4,0.3
			C271,229.8,270.3,230.1,269.3,230.1z M269.2,224.4c-0.5,0-0.9,0.2-1.3,0.6s-0.6,0.9-0.6,1.5h3.7v-0.1c0-0.6-0.2-1.1-0.5-1.4
			C270.1,224.5,269.7,224.4,269.2,224.4z"/>
		<path class="st2" d="M275.8,224.5c-0.1,0-0.3,0-0.5,0c-0.4,0-0.8,0.1-1.1,0.4c-0.3,0.2-0.5,0.6-0.6,1v4.2h-0.7v-6.1h0.7l0,1
			c0.4-0.7,0.9-1.1,1.7-1.1c0.2,0,0.3,0,0.4,0.1L275.8,224.5z"/>
	</g>
	<circle class="st3" cx="226.4" cy="225.8" r="4"/>
	<g>
		<path class="st2" d="M163,226.3l2.5-4.5h0.8l-3,5.1v3.1h-0.7v-3.1l-3-5.1h0.8L163,226.3z"/>
		<path class="st2" d="M166.6,226.9c0-0.6,0.1-1.1,0.3-1.6c0.2-0.5,0.5-0.8,1-1.1c0.4-0.3,0.9-0.4,1.4-0.4c0.8,0,1.5,0.3,2,0.9
			c0.5,0.6,0.8,1.3,0.8,2.3v0.1c0,0.6-0.1,1.1-0.3,1.6c-0.2,0.5-0.5,0.8-1,1.1c-0.4,0.3-0.9,0.4-1.4,0.4c-0.8,0-1.5-0.3-2-0.9
			c-0.5-0.6-0.8-1.3-0.8-2.3V226.9z M167.3,227c0,0.7,0.2,1.3,0.6,1.8c0.4,0.5,0.9,0.7,1.5,0.7c0.6,0,1.1-0.2,1.5-0.7
			c0.4-0.5,0.6-1.1,0.6-1.9v-0.1c0-0.5-0.1-0.9-0.3-1.3c-0.2-0.4-0.4-0.7-0.7-0.9c-0.3-0.2-0.7-0.3-1.1-0.3c-0.6,0-1.1,0.2-1.5,0.7
			c-0.4,0.5-0.6,1.1-0.6,1.9V227z"/>
		<path class="st2" d="M177.4,229.2c-0.4,0.6-1.1,0.9-1.9,0.9c-0.7,0-1.1-0.2-1.5-0.6s-0.5-0.9-0.5-1.7v-4h0.7v3.9
			c0,1.2,0.5,1.7,1.4,1.7c1,0,1.6-0.4,1.9-1.2v-4.4h0.7v6.1h-0.7L177.4,229.2z"/>
		<path class="st2" d="M185.6,222.4h-2.8v7.6H182v-7.6h-2.8v-0.6h6.3V222.4z"/>
		<path class="st2" d="M190.1,229.2c-0.4,0.6-1.1,0.9-1.9,0.9c-0.7,0-1.1-0.2-1.5-0.6c-0.3-0.4-0.5-0.9-0.5-1.7v-4h0.7v3.9
			c0,1.2,0.5,1.7,1.4,1.7c1,0,1.6-0.4,1.9-1.2v-4.4h0.7v6.1h-0.7L190.1,229.2z"/>
		<path class="st2" d="M197.4,227c0,1-0.2,1.7-0.6,2.3c-0.4,0.6-1,0.8-1.7,0.8c-0.9,0-1.5-0.3-1.9-0.9l0,0.8h-0.6v-8.7h0.7v3.4
			c0.4-0.7,1.1-1,1.9-1c0.7,0,1.3,0.3,1.7,0.8c0.4,0.6,0.6,1.3,0.6,2.3V227z M196.8,226.9c0-0.8-0.2-1.4-0.5-1.9
			c-0.3-0.4-0.8-0.7-1.3-0.7c-0.4,0-0.8,0.1-1.1,0.3c-0.3,0.2-0.5,0.5-0.7,0.9v2.8c0.3,0.8,0.9,1.2,1.8,1.2c0.6,0,1-0.2,1.3-0.7
			C196.6,228.4,196.8,227.8,196.8,226.9z"/>
		<path class="st2" d="M201.3,230.1c-0.5,0-1-0.1-1.4-0.4c-0.4-0.3-0.7-0.6-1-1.1c-0.2-0.5-0.3-1-0.3-1.5v-0.2
			c0-0.6,0.1-1.1,0.3-1.6c0.2-0.5,0.5-0.8,1-1.1c0.4-0.3,0.8-0.4,1.3-0.4c0.7,0,1.3,0.3,1.8,0.8c0.4,0.5,0.7,1.2,0.7,2.1v0.4h-4.4
			v0.1c0,0.7,0.2,1.3,0.6,1.7c0.4,0.5,0.9,0.7,1.5,0.7c0.4,0,0.7-0.1,1-0.2c0.3-0.1,0.5-0.3,0.8-0.6l0.4,0.3
			C203,229.8,202.2,230.1,201.3,230.1z M201.2,224.4c-0.5,0-0.9,0.2-1.3,0.6c-0.3,0.4-0.6,0.9-0.6,1.5h3.7v-0.1
			c0-0.6-0.2-1.1-0.5-1.4C202.1,224.5,201.7,224.4,201.2,224.4z"/>
	</g>
	<circle class="st5" cx="145.2" cy="225.8" r="4"/>
	<g>
		<path class="st2" d="M317.9,226.2h-3.8v3.8h-0.7v-8.2h5.1v0.6h-4.4v3.2h3.8V226.2z"/>
		<path class="st2" d="M323.4,230c-0.1-0.2-0.1-0.5-0.1-0.9c-0.2,0.3-0.5,0.5-0.9,0.7c-0.4,0.2-0.8,0.3-1.2,0.3
			c-0.6,0-1.1-0.2-1.4-0.5c-0.4-0.3-0.5-0.7-0.5-1.2c0-0.6,0.2-1.1,0.7-1.4c0.5-0.3,1.2-0.5,2.1-0.5h1.2v-0.7c0-0.4-0.1-0.8-0.4-1
			c-0.3-0.3-0.7-0.4-1.2-0.4c-0.5,0-0.9,0.1-1.2,0.4c-0.3,0.2-0.5,0.5-0.5,0.9l-0.7,0c0-0.5,0.2-0.9,0.7-1.3s1-0.5,1.7-0.5
			c0.7,0,1.2,0.2,1.6,0.5c0.4,0.3,0.6,0.8,0.6,1.4v2.9c0,0.6,0.1,1,0.2,1.3v0.1H323.4z M321.3,229.5c0.5,0,0.9-0.1,1.2-0.3
			c0.4-0.2,0.6-0.5,0.8-0.9V227H322c-0.7,0-1.2,0.1-1.6,0.4c-0.4,0.2-0.6,0.6-0.6,1c0,0.3,0.1,0.6,0.4,0.9S320.8,229.5,321.3,229.5z
			"/>
		<path class="st2" d="M328,229.5c0.5,0,0.9-0.1,1.2-0.4s0.5-0.6,0.5-1h0.6c0,0.4-0.1,0.7-0.3,1c-0.2,0.3-0.5,0.5-0.9,0.7
			c-0.4,0.2-0.7,0.3-1.1,0.3c-0.8,0-1.4-0.3-1.9-0.8c-0.5-0.6-0.7-1.3-0.7-2.2v-0.2c0-0.6,0.1-1.1,0.3-1.6c0.2-0.5,0.5-0.8,0.9-1.1
			c0.4-0.3,0.9-0.4,1.4-0.4c0.7,0,1.2,0.2,1.7,0.6c0.4,0.4,0.7,0.9,0.7,1.6h-0.6c0-0.5-0.2-0.9-0.5-1.2c-0.3-0.3-0.7-0.4-1.2-0.4
			c-0.6,0-1.1,0.2-1.4,0.7c-0.3,0.4-0.5,1.1-0.5,1.9v0.2c0,0.8,0.2,1.4,0.5,1.8C326.9,229.3,327.4,229.5,328,229.5z"/>
		<path class="st2" d="M334,230.1c-0.5,0-1-0.1-1.4-0.4c-0.4-0.3-0.7-0.6-1-1.1c-0.2-0.5-0.3-1-0.3-1.5v-0.2c0-0.6,0.1-1.1,0.3-1.6
			c0.2-0.5,0.5-0.8,1-1.1c0.4-0.3,0.8-0.4,1.3-0.4c0.7,0,1.3,0.3,1.8,0.8c0.4,0.5,0.7,1.2,0.7,2.1v0.4H332v0.1
			c0,0.7,0.2,1.3,0.6,1.7c0.4,0.5,0.9,0.7,1.5,0.7c0.4,0,0.7-0.1,1-0.2c0.3-0.1,0.5-0.3,0.8-0.6l0.4,0.3
			C335.7,229.8,335,230.1,334,230.1z M333.9,224.4c-0.5,0-0.9,0.2-1.3,0.6s-0.6,0.9-0.6,1.5h3.7v-0.1c0-0.6-0.2-1.1-0.5-1.4
			C334.8,224.5,334.4,224.4,333.9,224.4z"/>
		<path class="st2" d="M342.6,227c0,1-0.2,1.7-0.6,2.3c-0.4,0.6-1,0.8-1.7,0.8c-0.9,0-1.5-0.3-1.9-0.9l0,0.8h-0.6v-8.7h0.7v3.4
			c0.4-0.7,1.1-1,1.9-1c0.7,0,1.3,0.3,1.7,0.8c0.4,0.6,0.6,1.3,0.6,2.3V227z M341.9,226.9c0-0.8-0.2-1.4-0.5-1.9
			c-0.3-0.4-0.8-0.7-1.3-0.7c-0.4,0-0.8,0.1-1.1,0.3c-0.3,0.2-0.5,0.5-0.7,0.9v2.8c0.3,0.8,0.9,1.2,1.8,1.2c0.6,0,1-0.2,1.3-0.7
			C341.7,228.4,341.9,227.8,341.9,226.9z"/>
		<path class="st2" d="M343.7,226.9c0-0.6,0.1-1.1,0.3-1.6c0.2-0.5,0.5-0.8,1-1.1c0.4-0.3,0.9-0.4,1.4-0.4c0.8,0,1.5,0.3,2,0.9
			s0.8,1.3,0.8,2.3v0.1c0,0.6-0.1,1.1-0.3,1.6c-0.2,0.5-0.5,0.8-1,1.1c-0.4,0.3-0.9,0.4-1.4,0.4c-0.8,0-1.5-0.3-2-0.9
			c-0.5-0.6-0.8-1.3-0.8-2.3V226.9z M344.3,227c0,0.7,0.2,1.3,0.6,1.8c0.4,0.5,0.9,0.7,1.5,0.7c0.6,0,1.1-0.2,1.5-0.7
			c0.4-0.5,0.6-1.1,0.6-1.9v-0.1c0-0.5-0.1-0.9-0.3-1.3c-0.2-0.4-0.4-0.7-0.7-0.9c-0.3-0.2-0.7-0.3-1.1-0.3c-0.6,0-1.1,0.2-1.5,0.7
			c-0.4,0.5-0.6,1.1-0.6,1.9V227z"/>
		<path class="st2" d="M350.1,226.9c0-0.6,0.1-1.1,0.3-1.6c0.2-0.5,0.5-0.8,1-1.1c0.4-0.3,0.9-0.4,1.4-0.4c0.8,0,1.5,0.3,2,0.9
			s0.8,1.3,0.8,2.3v0.1c0,0.6-0.1,1.1-0.3,1.6c-0.2,0.5-0.5,0.8-1,1.1c-0.4,0.3-0.9,0.4-1.4,0.4c-0.8,0-1.5-0.3-2-0.9
			c-0.5-0.6-0.8-1.3-0.8-2.3V226.9z M350.8,227c0,0.7,0.2,1.3,0.6,1.8c0.4,0.5,0.9,0.7,1.5,0.7c0.6,0,1.1-0.2,1.5-0.7
			c0.4-0.5,0.6-1.1,0.6-1.9v-0.1c0-0.5-0.1-0.9-0.3-1.3c-0.2-0.4-0.4-0.7-0.7-0.9c-0.3-0.2-0.7-0.3-1.1-0.3c-0.6,0-1.1,0.2-1.5,0.7
			c-0.4,0.5-0.6,1.1-0.6,1.9V227z"/>
		<path class="st2" d="M358.4,226.9l-0.8,0.7v2.3H357v-8.7h0.7v5.5l0.6-0.7l2.3-2.3h0.9l-2.6,2.6l2.8,3.5h-0.8L358.4,226.9z"/>
	</g>
	<circle class="st4" cx="298" cy="225.8" r="4"/>
</g>
</svg>
